<?xml version="1.0" encoding="UTF-8"?><svg xmlns="http://www.w3.org/2000/svg" id="Ebene_1" viewBox="0 0 213.16 67.82"><defs><style>.cls-1{fill:#fff;}</style></defs><path class="cls-1" d="M168.85,10.98c-4.19,0-5.25,3.07-5.25,7.97s1.06,8.01,5.25,8.01,5.25-3.07,5.25-8.01-1.07-7.97-5.25-7.97ZM168.85,10.98c-4.19,0-5.25,3.07-5.25,7.97s1.06,8.01,5.25,8.01,5.25-3.07,5.25-8.01-1.07-7.97-5.25-7.97ZM168.85,10.98c-4.19,0-5.25,3.07-5.25,7.97s1.06,8.01,5.25,8.01,5.25-3.07,5.25-8.01-1.07-7.97-5.25-7.97ZM168.85,10.98c-4.19,0-5.25,3.07-5.25,7.97s1.06,8.01,5.25,8.01,5.25-3.07,5.25-8.01-1.07-7.97-5.25-7.97ZM168.85,10.98c-4.19,0-5.25,3.07-5.25,7.97s1.06,8.01,5.25,8.01,5.25-3.07,5.25-8.01-1.07-7.97-5.25-7.97ZM168.85,10.98c-4.19,0-5.25,3.07-5.25,7.97s1.06,8.01,5.25,8.01,5.25-3.07,5.25-8.01-1.07-7.97-5.25-7.97ZM210.58,17.01V3.45l-3.29-1.28c-2.61-1.01-6.18-2.17-10.62-2.17s-8.23,1.15-11.09,3.34c-1.09.82-1.99,1.78-2.73,2.82-2.99-4-7.75-6.16-14-6.16-11.19,0-17.61,6.9-17.61,18.95,0,.73.02,1.45.07,2.15h-3.61V.44h-17.52v1.94l-.54-.21c-2.62-1.01-6.19-2.17-10.63-2.17s-8.23,1.15-11.09,3.34c-.28.21-.13.1-.39.31l-.44-.18-3.27-1.3c-2.61-1.01-6.18-2.17-10.63-2.17s-8.22,1.15-11.08,3.34c-.28.21-.55.44-.81.67V.44h-30.03l-.53,4.56-.14,1.23h-7.29l-.13-1.23-.54-4.56h-17.31l.16,1.23c-2.45-.86-5.56-1.67-9.28-1.67C11.82,0,7.98,1.15,5.12,3.34,2.02,5.7.06,9.23,0,12.99v.14l.02,19.4,2.54,1.49c4.42,2.6,8.88,3.88,13.65,3.88,6.17,0,10.48-1.96,13.15-4.79l.54,4.34h13.15l1.48-2.6,2.43-4.24,2.43,4.24,1.48,2.6h30.43v-2.47c3.86,1.96,7.76,2.92,11.89,2.92,5.47,0,9.49-1.54,12.2-3.86,4.41,2.59,8.87,3.86,13.62,3.86s8.52-1.2,11.17-3.08v2.63h28.82v-1.97c2.67,1.58,5.97,2.42,9.85,2.42,5.44,0,9.75-1.64,12.75-4.71l1.41.83c4.42,2.6,8.89,3.88,13.66,3.88,11.39,0,16.49-6.66,16.49-13.26,0-3.23-1.02-5.7-2.58-7.63ZM16.21,32.74c-4.94,0-8.55-1.69-11.04-3.16v-7.03c3.87,2.71,8.63,4.09,10.99,4.09,2,0,3.56-.44,3.56-2s-1.16-1.91-4.27-2.85c-5.03-1.51-10.06-3.16-10.06-8.8,0-4.37,4.01-7.84,10.82-7.84,3.25,0,6.01.76,8.76,1.83v6.27c-3.11-1.25-5.78-1.96-8.72-1.96-2.13,0-3.07.54-3.07,1.65s1.2,1.56,3.65,2.36c5.03,1.64,10.72,3.56,10.72,9.34,0,4.72-4.18,8.1-11.34,8.1ZM59.46,32.3h-5.6l-6.9-12.06-6.9,12.06h-5.61l-3.29-26.7h6.9l1.69,14.59,5.03-8.81h4.36l5.03,8.81,1.68-14.59h6.91l-3.3,26.7ZM76.15,32.3h-7.21V5.6h7.21v26.7ZM93.19,32.74c-4.93,0-8.54-1.69-11.03-3.16v-7.03c3.87,2.71,8.63,4.09,10.99,4.09,2,0,3.56-.44,3.56-2s-1.15-1.91-4.27-2.85c-5.03-1.51-10.06-3.16-10.06-8.8,0-4.37,4.01-7.84,10.81-7.84,3.26,0,6.01.76,8.77,1.83v6.27c-3.11-1.25-5.78-1.96-8.72-1.96-2.14,0-3.07.54-3.07,1.65s1.2,1.56,3.65,2.36c5.03,1.64,10.72,3.56,10.72,9.34,0,4.72-4.18,8.1-11.35,8.1ZM119.01,32.74c-4.94,0-8.55-1.69-11.04-3.16v-7.03c3.87,2.71,8.64,4.09,10.99,4.09,2.01,0,3.57-.44,3.57-2s-1.17-1.91-4.28-2.85c-5.03-1.51-10.05-3.16-10.05-8.8,0-4.37,4-7.84,10.81-7.84,3.25,0,6.01.76,8.77,1.83v6.27c-3.12-1.25-5.79-1.96-8.73-1.96-2.13,0-3.07.54-3.07,1.65s1.2,1.56,3.65,2.36c5.03,1.64,10.73,3.56,10.73,9.34,0,4.72-4.19,8.1-11.35,8.1ZM153.85,32.3h-18.51V5.6h7.21v20.64h11.3v6.06ZM168.85,32.74c-9.22,0-12.46-5.6-12.46-13.79s3.24-13.8,12.46-13.8,12.46,5.61,12.46,13.8-3.25,13.79-12.46,13.79ZM196.67,32.74c-4.95,0-8.55-1.69-11.04-3.16v-7.03c3.87,2.71,8.63,4.09,10.99,4.09,2,0,3.56-.44,3.56-2s-1.16-1.91-4.27-2.85c-5.03-1.51-10.06-3.16-10.06-8.8,0-4.37,4-7.84,10.82-7.84,3.24,0,6,.76,8.76,1.83v6.27c-3.11-1.25-5.78-1.96-8.73-1.96-2.13,0-3.06.54-3.06,1.65s1.2,1.56,3.65,2.36c5.03,1.64,10.72,3.56,10.72,9.34,0,4.72-4.18,8.1-11.34,8.1ZM168.85,10.98c-4.19,0-5.25,3.07-5.25,7.97s1.06,8.01,5.25,8.01,5.25-3.07,5.25-8.01-1.07-7.97-5.25-7.97ZM168.85,10.98c-4.19,0-5.25,3.07-5.25,7.97s1.06,8.01,5.25,8.01,5.25-3.07,5.25-8.01-1.07-7.97-5.25-7.97ZM168.85,10.98c-4.19,0-5.25,3.07-5.25,7.97s1.06,8.01,5.25,8.01,5.25-3.07,5.25-8.01-1.07-7.97-5.25-7.97ZM168.85,10.98c-4.19,0-5.25,3.07-5.25,7.97s1.06,8.01,5.25,8.01,5.25-3.07,5.25-8.01-1.07-7.97-5.25-7.97ZM168.85,10.98c-4.19,0-5.25,3.07-5.25,7.97s1.06,8.01,5.25,8.01,5.25-3.07,5.25-8.01-1.07-7.97-5.25-7.97ZM168.85,10.98c-4.19,0-5.25,3.07-5.25,7.97s1.06,8.01,5.25,8.01,5.25-3.07,5.25-8.01-1.07-7.97-5.25-7.97ZM168.85,10.98c-4.19,0-5.25,3.07-5.25,7.97s1.06,8.01,5.25,8.01,5.25-3.07,5.25-8.01-1.07-7.97-5.25-7.97Z"/><path class="cls-1" d="M174.1,18.95c0,4.94-1.07,8.01-5.25,8.01s-5.25-3.07-5.25-8.01,1.06-7.97,5.25-7.97,5.25,3.07,5.25,7.97Z"/><path class="cls-1" d="M174.1,18.95c0,4.94-1.07,8.01-5.25,8.01s-5.25-3.07-5.25-8.01,1.06-7.97,5.25-7.97,5.25,3.07,5.25,7.97Z"/><path class="cls-1" d="M.28,47.36h3.18v9.33h.09c.39-.84.72-1.71,1.11-2.55l3.18-6.78h3.51l-4.71,8.73,4.83,11.49h-3.51l-3.48-9-1.02,1.8v7.2H.28v-20.22Z"/><path class="cls-1" d="M24.1,63.35c0,1.56.06,3,.12,4.23h-2.76l-.21-1.53h-.06c-.57.87-1.71,1.77-3.27,1.77-2.67,0-3.72-2.01-3.72-5.82v-9.03h3.18v8.64c0,2.07.39,3.54,1.71,3.54.96,0,1.47-.87,1.62-1.44.12-.33.18-.78.18-1.26v-9.48h3.21v10.38Z"/><path class="cls-1" d="M28.6,46.82h3.21v20.76h-3.21v-20.76Z"/><path class="cls-1" d="M40.24,49.34v3.63h2.82v2.34h-2.82v7.56c0,1.8.69,2.25,1.5,2.25.36,0,.66-.03.99-.09l.06,2.49c-.48.15-1.2.24-2.1.24-1.02,0-1.95-.27-2.58-.9-.72-.72-1.08-1.8-1.08-3.96v-7.59h-1.74v-2.34h1.74v-2.52l3.21-1.11Z"/><path class="cls-1" d="M56.32,63.35c0,1.56.06,3,.12,4.23h-2.76l-.21-1.53h-.06c-.57.87-1.71,1.77-3.27,1.77-2.67,0-3.72-2.01-3.72-5.82v-9.03h3.18v8.64c0,2.07.39,3.54,1.71,3.54.96,0,1.47-.87,1.62-1.44.12-.33.18-.78.18-1.26v-9.48h3.21v10.38Z"/><path class="cls-1" d="M60.82,57.08c0-1.35-.09-2.85-.12-4.11h2.79l.18,2.22h.09c.57-1.5,1.77-2.46,2.97-2.46.3,0,.48.03.66.06v3.21c-.18-.06-.39-.06-.66-.06-1.11,0-2.25.93-2.58,2.52-.09.36-.12.84-.12,1.41v7.71h-3.21v-10.5Z"/><path class="cls-1" d="M77.05,47.36h3.18v9.33h.09c.39-.84.72-1.71,1.11-2.55l3.18-6.78h3.51l-4.71,8.73,4.83,11.49h-3.51l-3.48-9-1.02,1.8v7.2h-3.18v-20.22Z"/><path class="cls-1" d="M100.48,64.25c0,1.14.03,2.37.18,3.33h-2.88l-.18-1.5h-.06c-.75,1.14-1.83,1.74-3.09,1.74-2.1,0-3.69-1.77-3.69-4.32,0-3.75,3.18-5.34,6.48-5.37v-.39c0-1.5-.6-2.58-2.19-2.58-1.05,0-1.92.3-2.73.81l-.6-2.19c.72-.45,2.25-1.05,4.02-1.05,3.78,0,4.74,2.58,4.74,5.7v5.82ZM97.33,60.26c-1.26.03-3.51.36-3.51,2.91,0,1.65.87,2.25,1.59,2.25.78,0,1.56-.54,1.83-1.68.06-.21.09-.48.09-.75v-2.73Z"/><path class="cls-1" d="M104.95,57.08c0-1.65-.06-2.82-.12-4.11h2.79l.15,1.71h.06c.69-1.17,1.92-1.95,3.45-1.95,2.46,0,3.75,1.89,3.75,5.28v9.57h-3.21v-9.27c0-1.44-.3-2.88-1.71-2.88-.78,0-1.5.6-1.8,1.8-.09.3-.15.78-.15,1.32v9.03h-3.21v-10.5Z"/><path class="cls-1" d="M123.19,49.34v3.63h2.82v2.34h-2.82v7.56c0,1.8.69,2.25,1.5,2.25.36,0,.66-.03.99-.09l.06,2.49c-.48.15-1.2.24-2.1.24-1.02,0-1.95-.27-2.58-.9-.72-.72-1.08-1.8-1.08-3.96v-7.59h-1.74v-2.34h1.74v-2.52l3.21-1.11Z"/><path class="cls-1" d="M139.12,60.23c0,5.91-3.03,7.59-5.25,7.59-3.09,0-5.22-2.58-5.22-7.5,0-5.28,2.61-7.59,5.34-7.59,3.06,0,5.13,2.7,5.13,7.5ZM131.86,60.26c0,2.46.42,5.1,2.13,5.1,1.59,0,1.95-2.91,1.95-5.1s-.36-5.04-2.01-5.04c-1.74,0-2.07,2.91-2.07,5.04Z"/><path class="cls-1" d="M143.02,57.08c0-1.65-.06-2.82-.12-4.11h2.79l.15,1.71h.06c.69-1.17,1.92-1.95,3.45-1.95,2.46,0,3.75,1.89,3.75,5.28v9.57h-3.21v-9.27c0-1.44-.3-2.88-1.71-2.88-.78,0-1.5.6-1.8,1.8-.09.3-.15.78-.15,1.32v9.03h-3.21v-10.5Z"/><path class="cls-1" d="M164.08,47.66c1.08-.27,2.46-.39,3.99-.39,1.86,0,3.57.3,4.8,1.41.99.87,1.44,2.16,1.44,3.6,0,1.89-1.02,3.6-3,4.44v.09c2.34.66,3.66,2.55,3.66,4.98,0,1.65-.54,3-1.47,3.99-1.17,1.29-3.15,1.95-6.06,1.95-1.47,0-2.58-.09-3.36-.21v-19.86ZM167.26,55.79h.96c1.62,0,2.94-1.32,2.94-3.15,0-1.68-.78-2.94-2.76-2.94-.48,0-.87.03-1.14.12v5.97ZM167.26,65.15c.27.06.6.09,1.02.09,1.95,0,3.39-1.17,3.39-3.48s-1.65-3.54-3.48-3.57h-.93v6.96Z"/><path class="cls-1" d="M181.56,61.13c.03,3.27,1.56,4.17,3.27,4.17,1.05,0,1.95-.24,2.61-.54l.45,2.31c-.9.42-2.31.69-3.66.69-3.75,0-5.79-2.73-5.79-7.26,0-4.83,2.34-7.77,5.46-7.77s4.62,2.79,4.62,6.69c0,.84-.06,1.32-.09,1.71h-6.87ZM185.55,58.85c.03-2.34-.75-3.72-1.89-3.72-1.38,0-2.01,2.01-2.07,3.72h3.96Z"/><path class="cls-1" d="M192.33,57.08c0-1.35-.09-2.85-.12-4.11h2.79l.18,2.22h.09c.57-1.5,1.77-2.46,2.97-2.46.3,0,.48.03.66.06v3.21c-.18-.06-.39-.06-.66-.06-1.11,0-2.25.93-2.58,2.52-.09.36-.12.84-.12,1.41v7.71h-3.21v-10.5Z"/><path class="cls-1" d="M202.02,57.08c0-1.65-.06-2.82-.12-4.11h2.79l.15,1.71h.06c.69-1.17,1.92-1.95,3.45-1.95,2.46,0,3.75,1.89,3.75,5.28v9.57h-3.21v-9.27c0-1.44-.3-2.88-1.71-2.88-.78,0-1.5.6-1.8,1.8-.09.3-.15.78-.15,1.32v9.03h-3.21v-10.5Z"/></svg>