<?xml version="1.0" encoding="UTF-8"?><svg xmlns="http://www.w3.org/2000/svg" xmlns:xlink="http://www.w3.org/1999/xlink" version="1.0" id="Layer_1" x="0px" y="0px" viewBox="0 0 976.1 282.6" style="enable-background:new 0 0 976.1 282.6;" xml:space="preserve"><style type="text/css">.st0{fill:#FFFFFF;}</style><g><path class="st0" d="M349.6,71.1H372c8.7,0,17.6,4,17.6,14.4c0,6.5-4,10.8-10,12.6v0.2c7.2,1,12.4,5.8,12.4,13.5 c0,12.5-10.9,16.7-21.7,16.7h-20.7V71.1z M359.9,94.4h9.1c6.8,0,10.4-2.8,10.4-7.8c0-5.1-3.6-7.1-11.3-7.1h-8.2V94.4L359.9,94.4z M359.9,119.8h9.2c5.3,0,12.8-1.1,12.8-8.6c0-6-4.1-8.1-12.4-8.1h-9.6V119.8z M437,128.4h-9.2v-6.2h-0.2c-1.7,3.9-6.3,7.4-12.1,7.4 c-10.1,0-14.3-7.8-14.3-15.7V89.5h9.7v21.5c0,4.6,1.1,10.4,7.3,10.4c6.2,0,9.1-5.3,9.1-10.5V89.5h9.7V128.4L437,128.4z M448.7,89.5 h9.3V96h0.2c2.1-4.5,6.2-7.6,11.3-7.6c0.7,0,1.7,0.1,2.3,0.2v8.9c-1.3-0.3-2.1-0.4-3-0.4c-8.7,0-10.4,7.6-10.4,10.4v20.8h-9.7V89.5 z M516.3,89.5v35.4c0,14-6.8,22.9-21.9,22.9c-6.3,0-14.3-2.3-19.3-6.4l5.6-7.5c3.7,3.6,8.7,5.5,13.6,5.5c9.4,0,12.3-5.7,12.3-13.4 v-2.8h-0.2c-2.8,3.8-7.4,5.8-12.7,5.8c-11.7,0-19.2-9.2-19.2-20.2c0-11.3,7.3-20.4,19-20.4c5.4,0,10.5,2.3,13.4,7h0.2v-5.8H516.3z M484.4,108.7c0,6.2,4.1,12.3,11.1,12.3c7.2,0,11.6-5.8,11.6-12.3c0-6.7-4.5-12.4-11.5-12.4S484.4,101.8,484.4,108.7 M565,112.1 h-29.6c0.4,5.5,5.4,9.6,11.1,9.6c4.9,0,8.1-1.9,10.3-5l6.5,5.2c-3.8,5.2-9.3,7.8-16.7,7.8c-12,0-20.9-7.7-20.9-20.3 c0-12.6,8.8-20.8,20.6-20.8c10.9,0,18.8,7,18.8,21.1C565.1,110.4,565.1,111.2,565,112.1 M555.4,105.1c0-5-2.8-9.4-9.2-9.4 c-5.8,0-10.4,4-10.8,9.4H555.4z M574.5,89.5h9.3V96h0.2c2.1-4.5,6.2-7.6,11.3-7.6c0.7,0,1.7,0.1,2.3,0.2v8.9 c-1.3-0.3-2.1-0.4-3-0.4c-8.7,0-10.4,7.6-10.4,10.4v20.8h-9.7V89.5z M642.1,89.5v35.4c0,14-6.8,22.9-21.9,22.9 c-6.3,0-14.3-2.3-19.3-6.4l5.6-7.5c3.7,3.6,8.7,5.5,13.6,5.5c9.4,0,12.3-5.7,12.3-13.4v-2.8h-0.2c-2.8,3.8-7.4,5.8-12.7,5.8 c-11.7,0-19.2-9.2-19.2-20.2c0-11.3,7.3-20.4,19-20.4c5.4,0,10.5,2.3,13.4,7h0.2v-5.8H642.1z M610.1,108.7 c0,6.2,4.1,12.3,11.1,12.3c7.2,0,11.6-5.8,11.6-12.3c0-6.7-4.5-12.4-11.5-12.4S610.1,101.8,610.1,108.7 M690.7,112.1h-29.6 c0.4,5.5,5.4,9.6,11.1,9.6c4.9,0,8.1-1.9,10.3-5l6.5,5.2c-3.8,5.2-9.3,7.8-16.7,7.8c-12,0-20.9-7.7-20.9-20.3 c0-12.6,8.8-20.8,20.6-20.8c10.9,0,18.8,7,18.8,21.1C690.8,110.4,690.8,111.2,690.7,112.1 M681.1,105.1c0-5-2.8-9.4-9.2-9.4 c-5.8,0-10.4,4-10.8,9.4H681.1z M761,104.1v24.3h-9.7v-21.5c0-4.6-1.1-10.4-7.3-10.4c-6.1,0-8.6,5.7-8.6,10.7v21.2h-9.7v-23.5 c0-4.8-2.3-8.4-7.2-8.4c-5.8,0-8.5,5.3-8.5,10.5v21.4h-9.7V89.5h9.2v6.2h0.2c1.7-3.8,5.8-7.4,12.1-7.4c6,0,10,3,12.2,7.4 c2.6-4.7,7-7.4,12.8-7.4C756.7,88.4,761,96.2,761,104.1 M809.3,112.1h-29.6c0.4,5.5,5.4,9.6,11.1,9.6c4.9,0,8.1-1.9,10.3-5l6.5,5.2 c-3.8,5.2-9.3,7.8-16.7,7.8c-12,0-20.9-7.7-20.9-20.3c0-12.6,8.8-20.8,20.6-20.8c10.9,0,18.8,7,18.8,21.1 C809.4,110.4,809.4,111.2,809.3,112.1 M799.7,105.1c0-5-2.8-9.4-9.2-9.4c-5.8,0-10.4,4-10.8,9.4H799.7z M823.7,70.5 c3.6,0,6.3,2.5,6.3,5.8c0,3.3-2.8,5.8-6.3,5.8c-3.6,0-6.2-2.8-6.2-5.8C817.6,73.3,820.2,70.5,823.7,70.5 M819,89.5h9.7v38.9H819 V89.5z M840.5,89.5h9.2v6.2h0.2c1.7-3.9,6.3-7.4,12.1-7.4c10.1,0,14.3,7.8,14.3,15.7v24.3h-9.7v-21.5c0-4.6-1.1-10.4-7.3-10.4 c-6.2,0-9.1,5.3-9.1,10.5v21.4h-9.7L840.5,89.5L840.5,89.5z M927.2,128.4h-9.2v-5.8h-0.2c-2.7,4.5-7.9,7-13.4,7 c-11.8,0-19.1-9.4-19.1-20.7c0-11.5,7.8-20.4,18.9-20.4c7.1,0,11,3.6,13,6.1h0.2V67.2h9.7L927.2,128.4L927.2,128.4z M906.4,121.4 c7.1,0,11.4-6.4,11.4-12.5s-4.3-12.6-11.4-12.6c-7.5,0-11.2,6.4-11.2,12.5C895.2,114.9,898.8,121.4,906.4,121.4 M976,112.1h-29.6 c0.4,5.5,5.4,9.6,11.1,9.6c4.9,0,8.1-1.9,10.3-5l6.5,5.2c-3.8,5.2-9.3,7.8-16.7,7.8c-12,0-20.9-7.7-20.9-20.3 c0-12.6,8.8-20.8,20.6-20.8c10.9,0,18.8,7,18.8,21.1C976.1,110.4,976.1,111.2,976,112.1 M966.4,105.1c0-5-2.8-9.4-9.2-9.4 c-5.8,0-10.4,4-10.8,9.4H966.4z M349.6,167.1H372c8.7,0,17.6,4,17.6,14.4c0,6.5-4,10.8-10,12.6v0.2c7.2,1,12.4,5.8,12.4,13.5 c0,12.5-10.9,16.7-21.7,16.7h-20.7V167.1z M359.9,190.4h9.1c6.8,0,10.4-2.8,10.4-7.8c0-5.1-3.6-7.1-11.3-7.1h-8.2V190.4 L359.9,190.4z M359.9,215.8h9.2c5.3,0,12.8-1.1,12.8-8.6c0-6-4.1-8.1-12.4-8.1h-9.6V215.8z M438.6,208.1H409 c0.4,5.5,5.4,9.6,11.1,9.6c4.9,0,8.1-1.9,10.3-5l6.5,5.2c-3.8,5.2-9.3,7.8-16.7,7.8c-12,0-20.9-7.7-20.9-20.3 c0-12.6,8.8-20.8,20.6-20.8c10.9,0,18.8,7,18.8,21.1C438.7,206.4,438.7,207.2,438.6,208.1 M428.9,201.1c0-5-2.8-9.4-9.2-9.4 c-5.8,0-10.4,4-10.8,9.4H428.9z M448.1,185.5h9.3v6.5h0.2c2.1-4.5,6.2-7.6,11.3-7.6c0.7,0,1.7,0.1,2.3,0.2v8.9 c-1.3-0.3-2.1-0.4-3-0.4c-8.7,0-10.4,7.6-10.4,10.4v20.8h-9.7V185.5z M477.5,185.5h9.2v6.2h0.2c1.7-3.9,6.3-7.4,12.1-7.4 c10.1,0,14.3,7.8,14.3,15.7v24.3h-9.7v-21.5c0-4.6-1.1-10.4-7.3-10.4c-6.2,0-9.1,5.3-9.1,10.5v21.4h-9.7L477.5,185.5L477.5,185.5z M119.7,61.6c2.4,0.5,6,1,8.5,1.3c0,0-1,3-3.6,2.3c-2.5-0.7-5.1-3.1-5.1-3.1L119.7,61.6z M72.6,86.7h69.2h69.2l0,57.2 c0,26.9-5.9,48.1-17.6,62.9c-11.9,15.1-29.3,22.8-51.6,22.8c-22.3,0-39.6-7.7-51.6-22.8c-11.7-14.8-17.6-35.9-17.6-62.9L72.6,86.7 L72.6,86.7z M177.4,218.4L74.8,153c2.6,48.1,26.1,74.5,66.9,74.5C155.7,227.5,167.6,224.4,177.4,218.4 M127.8,88.7l81.1,51.7 l0-51.7h-67.2H127.8z M74.6,143.9c0,2.3,0.1,4.5,0.1,6.7l104.6,66.6c19.3-13,29.6-37.9,29.6-73.4v-1.2l0,0l-84.8-54H74.6 L74.6,143.9L74.6,143.9z M122.7,11.3c0,0-1.6-4.8-5.7-3.7c-4.1,1.1-8.2,5-8.2,5l0.2,0.8C113,12.6,118.7,11.8,122.7,11.3 M120.6,26.8c-4.1,1.1-8.2,5-8.2,5l0.2,0.8c3.9-0.8,9.7-1.6,13.7-2.2C126.3,30.5,124.7,25.6,120.6,26.8 M122.4,36.4 c-4.1,1.1-8.2,5-8.2,5l0.2,0.8c4-0.8,9.7-1.6,13.7-2.2C128.1,40.1,126.5,35.2,122.4,36.4 M118.8,17.2c-4.1,1.1-8.2,5-8.2,5l0.2,0.8 c3.9-0.8,9.7-1.7,13.7-2.1C124.5,20.9,122.9,16,118.8,17.2 M118.3,67.9c0,0,2.5,2.4,5.1,3.1c2.6,0.7,3.6-2.3,3.6-2.3 c-2.5-0.3-6.1-0.8-8.5-1.3L118.3,67.9z M117,73.6c0,0,2.6,2.4,5.1,3.1c2.6,0.7,3.6-2.3,3.6-2.3c-2.5-0.3-6.1-0.8-8.5-1.3L117,73.6z M155.3,63c0,0,1,3,3.6,2.3c2.5-0.7,5.1-3.1,5.1-3.1l-0.1-0.5C161.4,62.2,157.8,62.7,155.3,63 M283.5,140.8 c0,78.2-63.6,141.7-141.7,141.7C63.6,282.6,0,219,0,140.8c0-35,12.9-68.6,36.4-94.7C59.6,20.4,91.2,4,125.5,0 c2.1-0.2,3.6,0.9,4.1,3.1l7.5,40.2c0.4,2.4,0.3,3.9-1.3,5.3l-5.3,4l4.9,0.8l-6.2,27.5l-0.8,0h-0.2c-7.3,0-23.5-2-29.1-6.6 c-1-0.9-4.2-9.3-6.3-15.2C65,75.7,46.4,106.2,46.4,140.8c0,52.5,42.8,95.3,95.3,95.3c52.5,0,95.3-42.8,95.3-95.3 c0-34.6-18.5-65.1-46.4-81.8c-2.1,5.9-5.2,14.4-6.3,15.2c-5.6,4.7-21.8,6.6-29.1,6.6h-0.2l-0.8,0l-6.2-27.5l4.9-0.8l-5.2-3.9 c-1.7-1.4-1.8-3-1.4-5.3l7.5-40.2c0.4-2.1,2-3.3,4.1-3.1c34.3,3.9,65.9,20.3,89.2,46.1C270.6,72.2,283.5,105.8,283.5,140.8 M181.3,73.9l-20.8-15.7c-0.8,0.6-1.8,1.1-2.8,1.4c-2.6,0.7-3.6-2.3-3.6-2.3c1.3-0.2,2.8-0.4,4.4-0.6l-3.3-2.5l-4.7,0.8l5.4,23.8 C163.4,78.8,175.6,76.9,181.3,73.9 M188.9,58c-12.1-6.9-25.9-11.2-40.7-12.2c0.1,0.6,0.4,0.9,0.8,1.3l34,25.7c0,0,0,0,0,0 C183.7,72,186.4,64.8,188.9,58 M128.3,54.2l-3.3,2.5c1.5,0.2,3.1,0.5,4.4,0.6c0,0-1,3-3.6,2.3c-1-0.3-2-0.8-2.9-1.4l-20.8,15.7 c5.7,3,17.8,4.9,25.4,4.9L133,55L128.3,54.2z M135.2,45.8c-14.8,1-28.6,5.3-40.7,12.2c2.4,6.8,5.1,13.9,5.8,14.7L134.5,47 C134.9,46.6,135.2,46.3,135.2,45.8 M281.5,140.8c0-71-53.2-130.7-123.7-138.8c-1-0.1-1.6,0.4-1.9,1.5l-7.5,40.1c0,0,0,0.1,0,0.1 c51,3.4,90.7,45.8,90.7,97.1c0,53.7-43.7,97.3-97.3,97.3c-53.7,0-97.3-43.7-97.3-97.3c0-51.2,39.8-93.7,90.7-97.1 c0-0.1,0-0.1,0-0.1l-7.5-40.1c-0.2-1.1-0.8-1.6-1.9-1.5C55.2,10.1,2,69.8,2,140.8c0,77,62.7,139.7,139.7,139.7 C218.8,280.6,281.5,217.9,281.5,140.8 M160.8,11.3c4,0.5,9.8,1.4,13.7,2.1l0.2-0.8c0,0-4.1-3.9-8.2-5 C162.3,6.4,160.8,11.3,160.8,11.3 M157.2,30.5c4,0.5,9.8,1.4,13.7,2.2l0.2-0.8c0,0-4.1-3.9-8.2-5C158.8,25.6,157.2,30.5,157.2,30.5 M155.4,40.1c4,0.5,9.8,1.4,13.7,2.2l0.2-0.8c0,0-4.1-3.9-8.2-5C156.9,35.2,155.4,40.1,155.4,40.1 M159,20.9 c4,0.5,9.8,1.3,13.7,2.1l0.2-0.8c0,0-4.1-3.9-8.2-5C160.5,16,159,20.9,159,20.9 M160.1,71c2.5-0.7,5.1-3.1,5.1-3.1l-0.1-0.5 c-2.4,0.5-6,1-8.5,1.3C156.6,68.7,157.5,71.7,160.1,71 M161.4,76.7c2.5-0.7,5.1-3.1,5.1-3.1l-0.1-0.5c-2.5,0.5-6,1-8.5,1.3 C157.8,74.4,158.8,77.4,161.4,76.7 M113.7,95.1c0.5,0.1,1.3,0.2,2.2,0.5c1.7,0.5,4.1,1.5,6.5,3.3c0.6-1.7,0.3-2.8-0.3-3.6 c-0.8-1.2-2.4-1.8-3.8-2.2c-1.6-0.4-3.4-0.5-4.6,0.8c-0.2,0.2-0.4,0.5-0.4,0.7C113.3,94.9,113.4,95,113.7,95.1 M90.8,99.1 c-0.3-1.3,1.2-1.6,2.1-1.2c0.5,0.2,0.9,0.5,1.3,0.8c2,1.3,3.7,2.4,6.1,1.3c1.6-0.7,3.1-1.5,4.8-2.1c6.2-1.9,13.8,0.2,18.1,5.1 c1.5-1.8,5-2.2,7.1-1.4c2.4,1,5.1,4.2,3.7,6.9c-0.9,1.7-3.1,3-4.9,3.4c-0.7,0.2-1,0.6-1,1.1c0,0.6,1.6,2.5,4.3,1.5 c2.4-0.9,6.3-5.2,11-2.7c1.3,0.7,1.8,1.1,3.1,2.6c0.4,0.5,0.8,1,1.2,1.6c0.1,0.1,0.2,0.5,0.3,0.5c0.5,0,1,0.1,1.5,0.2 c3.8,0.7,7.4,2,10.9,3.5c5.1,2.2,10,4.9,14.2,8.5c3,2.5,5.7,5.4,8,8.6c0.6,0.9,1.3,1.8,1.8,2.7c0.1,0.2,0.4,0.9,0.6,0.9 c2,0,4.2,0.1,6.1,0.8c1.5,0.6,5,2.4,4.5,4.5c-0.2,0.6-0.7,0-1.1,0c-0.6,0-1.1,0.3-0.8,0.7c0.2,0.2,0.7,0.5,1,0.6 c0.5,0.2,0.8,0.5,1,1c0.5,0.9-0.4,1.9-0.9,0.9c-0.3-0.5-1.2-1.9-2.3-0.9c0.6,0.4,1.3,1.6,1.3,2.3c0.1,1-0.8,1.5-1.8,1 c-1.7-0.9-1.2-4.5-4.2-4.5c0.1,1.9,1,3.7,1.7,5.4c0.3,0.7,0.6,1.4,0.9,2c0.2,0.4-1.2,0.8-1.5,0.9c0.3,0.3,0.6,0.5,1,0.7 c0.6,0.2,0.7,0.1,0.8,0.8c0,0.3,0,0.6-0.2,0.9c-0.3,0.6-1,0.9-1.7,1c1.5,0.5,2.3,1.6,1.6,3.2c-0.4-0.3-1.1-0.6-1.5-0.3 c-0.4,0.2,0.8,1.2,1,1.3c0.4,0.3,1.2,1.5,0.4,1.7c-0.4,0.1-0.8,0.4-1,0.7c1.2,0.7,1.8,1.8,1,3.1c-0.3-0.3-1.3-0.7-1.4-0.2 c0.3,1,1.1,1.8,1.8,2.4c0.3,0.3,0.2,0.7,0.3,1.1c0.1,0.7,0.2,1.5,0.3,2.2c0.3,1.7,0.7,3.6,1.6,5.1c0.3,0.5,0.9,0.9,1.2,1.5 c0.3,0.5,0.3,1,0.3,1.6c0,2.9-1.3,5.9-2.4,8.5c-0.8,1.8-1.8,3.4-2.8,5.1c-0.9,1.6-1.9,3.2-3,4.6c-1.2,1.5-3.1,3.1-5,3.3 c-0.9,0.1-1.8,0-2.7,0.3c-1.1,0.4-1.9,1.4-2.6,2.3c-0.5,0.8-1.5,1.2-1.7,0c-0.1-0.7,0.2-1.4,0.5-2.1c0.1-0.4,1.6-2.8,1.3-3 c-1.5-1-3.4,1.1-4.3,2.5c-0.3,0.5-0.9,1.6-1.5,1c-0.3-0.3-0.2-0.8-0.2-1.2c0.1-0.7,0.5-1.7,1-2.4c0.6-1,1.5-2.1,2.4-2.9 c-1.5-1.7-3.6,0-4.6,1.3c-0.5,0.6-1.2,1.5-2,0.9c-0.7-0.5-0.2-1.6,0.2-2.2c1.2-2.1,3.3-3.7,5.7-4.3c-0.3-0.6-0.8-1.5-1.6-1.6 c-0.8-0.2-1.7,0.2-2.4,0.4c-0.4,0.2-1,0.5-1.3,0.1c-1.1-1.4,1.9-3,2.9-3.3c1.4-0.4,2.8,0,4,0.8c0.9,0.6,1.9,1.9,3,1.9 c1.5,0,2.5-3.2,2.7-4.4c0.3-1.7,1-4.6-0.2-6.2c-4.4-6-8-17.5-8.7-23c-0.4-3.4-0.3-5.8,0-7.9c0.3-2,1.2-4.6,0.1-6.5 c-0.4-0.6-1.7-1.4-2.1-0.1c-0.1,0.4,0.2,1.4,0.2,2.4c0,1.5-1.7,6.3-1.7,8.8c0,0.9,0.9,3.9,0.9,6.7c0,2-0.5,3.8,0.4,5.7 c0.5,0.9,1.3,1.6,1.7,2.6c0.4,0.9,0.3,2.2-0.2,3.3c-0.6,1.4-1.1,2.2-2,3.3c-0.2-0.6-0.6-1.2-0.7-1.5c-0.3-0.5-0.6-1-0.9-1.3 c-0.9-0.9-1.7-1.5-2.5-1.8c-2.3-0.8-4.9-0.4-7.5,0.4c-1.4,0.4-2.7,0.9-3.7,1.2c-1.8,0.5-1.7,0.2-2-0.4c-0.8-1.6-1.4-2.1-2-2.7 c-0.3-0.2-0.8-0.6-1-0.6c-0.9-0.3-0.5-0.5-0.2-0.5c0.5,0,0.9,0.1,1.3,0.3c0.2,0.1,0.7,0.3,1.9,1c1,0.5,2,1.2,3.1,0.7 c2.6-1.1,0.9-4.3,0-6c-1.2-2.5-2.8-5.2-2.8-8.1c0-2.1,1-4.3,2.8-5.5c3.3-2.2,8.3-0.8,11.5,0.8c0.3-1.5-1.4-2.5-2.5-3 c-5.1-2.6-9.8-0.8-15.2-1.4c-0.9-0.1-2.6-0.7-1.9-2.7c0.4-1,0.6-2.1,0.5-3.2c-0.1-1.2-1.1-2-1.4-3.1c-0.2-0.7-0.1-1.4,0.1-2.1 c0.2-0.6-0.4-1.3-1.2-1.3c-0.9,0-1.4,1.1-1.5,1.5c-0.5,2.3,0.8,4.3,0.6,6.5c-0.1,1.7-0.5,3.4-1,5c-0.4,0-2.8-0.1-2.8,0.7 c0,0.5,1.6,1,2,1.1c-0.2,0.4-0.6,1.9-1.1,1.8c-0.7,0-1.9-0.1-2.1,0.3c-0.1,0.4,1,1,1.6,1.2c-0.3,0.7-0.7,1.4-1.2,2.1 c-0.6,0-1.8-0.1-1.8,0.2c-0.1,0.3,0.4,0.5,0.6,0.7c0.3,0.2,0.7,0.2,0.4,0.6c-0.4,0.7-0.8,1.3-1.2,1.9c-0.4-0.1-1.4-0.2-1.1,0.4 c0.2,0.4,0.5,0.5,0.3,0.9c-0.9,1.6-2,3-3.3,4.3c-2.2,2.3-5,4-8,4.9c-3.1,1-6.6,0.2-9.2-1.1c0.5-0.1,1.7-0.4,1.5-1.4 c-0.2-0.8-1.4-1.1-2-0.7c-0.3,0.2-1.3,1.4-1.4,1.3c-0.6-0.1-1.1-0.4-1.4-0.6c-0.7-0.4-0.8-0.9,0-1.1c0.2-0.1,1.5-0.2,1.6-0.5 c0.1-0.2,0.1-0.5-0.2-1c-0.4-0.6-1.6-0.6-2.3-0.6c-1,0-2.7,0.4-3.5,0.1c-0.6-0.2,0.3-1.2,0.5-1.5c0.7-0.8,1.5-1.2,2.4-1.4 c0.7-0.1,2.8-0.4,2-1.6c-0.4-0.6-1.1-1.2-1.8-1.5c-1.1-0.4-2.2-0.1-3.3-0.5c-1.3-0.5,0-1.5,0.7-1.9c0.7-0.3,1.8-0.4,2.6-0.3 c1.1,0.2,2,0.8,3,1.3c1,0.6,2,0.5,1.7-0.7c-0.2-1-0.9-2-1.6-2.7c-0.4-0.3-1-0.5-1.2-1c-0.2-0.5,0.2-0.8,0.7-0.8 c1.9-0.1,4.6,0.8,5.6,2.5c0.5,0.8,0.1,1.4,0.4,2.3c0.2,0.5,0.5,0.7,1.1,1c-0.3,0.5-0.7,1.2-0.9,1.4c-0.3,0.4-0.8,0.3-1.1,0.8 c-0.2,0.3-0.2,1.3,0.7,1.5c0.9,0.2,1.9-0.2,2.3-0.7c0.8-0.9,1.4-2.2,2-3.2c1.8-3.2,3.2-6.7,3.8-10.4c0.8-5.1-0.5-11-3.4-15.3 c-2-3-5.1-5.2-8.4-6.7c-5.4-2.5-11.5-3.6-17.5-3.8c-0.9,0-1.9,0-2.8-0.2c-0.5-0.1-1-0.3-1.4-0.5c0-0.7-0.2-1.4-0.3-2.1 c-0.1-0.6-1-2.9-0.1-3.2c0.8-0.3,1.7,2.4,2.3,2.9c0.7,0.7,2,0.7,2.9,0.9c2.3,0.3,5.3,0.7,7.4-0.6c2-1.2,1.7-3.5,1.1-5.1 c-0.8-1.9-2.3-3.3-4-4.4c-2.1-1.4-4.3-2.4-6.6-3.4c-1-0.4-2-0.9-3-1.3c-0.8-0.3-2.4-1-2.4-1.6c0-1.1,1.6-1.7,2.5-2 C92.3,101.1,91.1,100.2,90.8,99.1 M156,139.6c-0.3,0.6,1.8,2.8,3.2,4.1c1,0.9,4.4,4.7,5.2,5.5c0.2,0.2,0.4,0.4,0.8,0.4 c0.8,0,0.8-0.9,0.9-1.3c0-0.1,0.3-1.8,0.4-2c0.2-0.6,0.9-3-0.8-3.7c-0.6-0.3-5.7-2.3-6.4-2.6C158.4,139.6,156.2,139,156,139.6 M117.9,108.4c-0.1,0-1.4-0.4-1.4-0.4l0,0.5c0,1.4-0.9,2.3-2.2,2.3c-1.2,0-2.2-0.4-2.7-1.2c-0.5-0.7-0.5-1.6-0.2-2.6l0.2-0.4 l-0.4-0.1c0,0-1.4-0.4-1.8-0.5c-0.1,0-0.3-0.1-0.4-0.1c-0.8,0-1.1,0.4-1.2,0.7c-0.3,1.5-0.2,2.8,1.1,4.5c1.3,1.7,3.2,2.3,4.8,2.3 c3.5,0,4.8-2.9,5.1-4.3C118.7,108.9,118.8,108.6,117.9,108.4 M106.7,103c0.2,0.4,0.7,0.8,1.4,1c3.9,1,8.6,2.3,10.8,3.1 c0.2,0.1,0.4,0.1,0.5,0.1c0.6,0,1.1-0.4,1.3-1.1c0.1-0.6-0.1-1.4-0.8-1.5c-2.3-0.6-5.9-1.7-9.2-2.7c-0.1,0-0.2-0.1-0.1-0.2 c0.2-0.2,0.6-0.4,0.4-0.7c-0.2-0.2-0.7-0.2-0.9-0.2c-0.7,0.2-2.9,0.9-3.4,1.7C106.6,102.5,106.6,102.8,106.7,103 M83.5,139.4 c0.7,0.2,2.3,0.9,2.3,1.8c0,0.7-1.9,0.4-2.4,0.5c-1.4,0.1-1.7,0.9-0.5,1.7c1.8,1.2,3.8,2.3,5.7,3.4c0.7,0.4,2.5,1.5,4.8,2.2 c-0.2-1,0-2.1,0-3.1c0-1,0.7-1.6,1.7-1.2c0.9,0.3,0.9,2.2,0.9,2.7c0,0.7-0.2,1.8,0.3,2.4c0.4,0.4,0.4,0.3,1,0.5 c1.1,0.2,3,0.5,4.1,0.7c2.4,0.3,4.9,0.6,7.2-0.3c2.4-0.9,3-3.3,1.5-5.4c-1.2-1.6-3.4-1.9-5.2-2c-2.4-0.2-4.9,0.1-7.1-0.7 c-2.2-0.8-1.5-2.6-2-4.4c-0.2-0.9-0.7-1.5-1.5-1.9c-0.6-0.3-1.9-0.4-1.9-1.2c-0.2-2.1,3.6-2.3,5-2.1c-0.4-1-1.2-1.5-1.9-2.2 c-0.6-0.6-1.1-1.4-1.7-2c-1.3-1.4-2.9-2.4-4.9-2.4c-0.7,0-2.2,0.7-0.9,1.3c0.6,0.3,1.3,0.7,1.8,1.2c1.2,1.2,1.1,3.4,1,5 c-1.6-1.2-3.7-2.2-5.6-2.4c-0.7-0.1-3.8-0.5-3.2,0.9c0.2,0.4,1.4,0.9,2,1.3c0.7,0.4,1.1,0.7,1.7,1.2c1.1,0.9,2.1,2.3,1.8,3.9 c-0.8-0.4-7.2-2.5-7.2-0.7C80.2,138.5,82.6,139.1,83.5,139.4 M152.1,177.2c-1.3,0.2-2.6,0.2-3.1-1.2c-0.5-1.3-1-2.4-2.4-3.1 c-0.6-0.3-1.2-0.5-1.8-0.5c-0.5,0-1.2,0-1.7-0.2c-1.3-0.7,0.8-2.4,1.4-2.7c-2.4-1.6-6.2-2.7-8.1,0.2c-1.2,1.8,1.2,1.3,2.3,1.3 c1.6,0,2.5,1,2.5,2.5c-2.3-0.3-4.9,0.2-6.2,2.3c-0.2,0.3-0.6,1-0.1,1.3c0.4,0.3,1.3-0.3,2-0.6c1.5-0.5,3-0.5,3.8,0.8 c-1.3,0.5-2.9,1.3-3.8,2.4c-0.3,0.4-0.7,0.9-0.4,1.3c0.4,0.6,1.5-0.3,1.9-0.5c1-0.5,2.7-1.4,3.7-1c1.7,0.6,0,1.5-0.6,2 c-0.8,0.7-1.9,1.4-2.4,2.4c-0.5,1-0.2,2,1,1.4c1.1-0.6,1.9-1.4,3.2-1.5c1-0.1,2,0.2,3,0.4c2.4,0.5,4.8,0.8,7.3,0.8 c0.7,0,1.4,0,2-0.4c0.2-0.1,0.4-0.3,0.5-0.6c-0.2-0.2-0.4-0.4-0.6-0.6c-0.4-0.4-2.2-2.5-1.4-2.9c0.7-0.4,1.9-0.7,2.3-0.1 c0.5,0.6,1,1.4,1.7,1.9c1.5,1,1.8,1.2,4.6-0.2c1.4-0.7,3.9-2,3.1-4.1C163.3,172,156.2,176.5,152.1,177.2 M92.5,107 c-0.5,0.7-0.4,2.1-0.2,2.9c0.2,0.8,0.6,1.1,1,0.3c0.3-0.6,1.2-1.9,0.9-2.6C94,107.1,92.9,106.5,92.5,107 M95.4,108.2 c-0.5,0.7-0.4,2.1-0.2,2.9c0.2,0.8,0.6,1.1,1,0.3c0.3-0.6,1.2-1.9,0.9-2.6C96.9,108.3,95.8,107.7,95.4,108.2 M84.6,110.2 c0.4,0.8,0.8,1.7,1.1,2.5c0.2,0.6,0.5,1,1.3,1c3.9,0.2,7.9,0.7,11.6,2c1.3,0.5,2.2,0.9,2.9,1.2c0.5,0.3,1.5,0.8,1.9,0 c0.5-1-0.4-1.4-1.1-1.7c-2.1-1.1-4.4-2-6.8-2.6c-2.4-0.7-4.6-1.1-6.6-2.7c-1.3-1-2.4-2.3-3.4-3.6c-0.3-0.4-0.6-0.8-1.2-0.9 c-1.1-0.1-1.7,1.1-1.2,1.9C83.7,108.3,84.1,109.3,84.6,110.2 M124.1,146.2l0.3-0.1c0,0,0.3-2.7-0.8-6.5c-1.2-4.1-3.2-6.3-4.3-7.5 c-0.9-0.9-2.3-1.9-3.2-1.4c-2.2,1.1-3.7,2.1-6.2,3.7c-2.3,1.4-5.1,3.5-7.8,3.8c-1.1,0.1-1.6,0.5-2.1-0.4c-0.1-0.2-0.3-0.7-0.4-1 c-0.6-1.4-2.2-1.6-2.3-1.3c0,0.2,0.4,0.6,0.8,1.7c0.1,0.3,0.2,0.9,0.2,1.3c0.1,0.6,0,1.1,0.2,1.5c0.1,0.4,1.7,0.5,2.5,0.6 c4.1,0.2,8.3-0.4,11.2,3.4c0.7,0.9,1.2,2.2,1.1,3.6c0,2.2,2.1,1.1,3.2,0.5c-0.3-0.4-1-1.7-0.3-2c0.9,0,1.5,0.9,1.9,1.6 c0.1,0.2,0.9-0.1,1.1-0.2c0.6-0.2,0.5-0.4,0.3-0.9c-0.2-0.4-0.5-1.9,0.4-1.4c0.4,0.2,1.2,1.8,1.5,1.8c0.5-0.1,1-0.3,1.3-0.6 c-0.2-0.4-0.4-0.8-0.5-1.3C122.1,143.9,123.3,144.5,124.1,146.2 M79.8,22.3c1.3-0.6,2.6-1.1,4-1.6c1.2,2.4,2.4,4.7,3.6,7 c1.2,2.3,2.5,4.6,3.9,6.9c0.4,0.7,0.8,1.3,1.2,2c0.4,0.6,0.8,1.3,1.2,2c0.4,0.7,0.8,1.4,1.2,2.2c0.4,0.8,0.9,1.5,1.5,2.1 c0.6,0.6,1.2,1,2,1.2c0.7,0.2,1.6,0,2.6-0.5l1,1.7c-1.9,1.2-3.8,2.3-5.7,3.4c-1.9,1.1-3.8,2.2-5.7,3.4c-1.2,0.7-2.4,1.3-3.6,1.8 c-1.2,0.5-2.3,0.7-3.4,0.7c-1.1,0-2.1-0.3-3.1-0.9c-1-0.6-1.9-1.6-2.7-3c-0.9-1.6-1.2-3.1-0.8-4.7c0.4-1.6,1.2-3,2.5-4.1 c-2,1.1-4,1.5-5.9,1c-1.9-0.4-3.4-1.7-4.6-3.7c-0.9-1.6-1.3-3.1-1.2-4.6c0.1-1.5,0.6-2.8,1.4-4.1c0.8-1.3,1.8-2.4,3.1-3.5 c1.3-1,2.5-1.9,3.8-2.7C77.2,23.5,78.5,22.9,79.8,22.3 M82.4,33.3c-0.7-1.1-1.5-2.3-2.1-3.4c-0.2-0.4-0.5-0.8-0.7-1.1 c-0.3-0.4-0.6-0.6-0.9-0.9c-0.3-0.2-0.7-0.3-1.1-0.3c-0.4,0-0.8,0.1-1.3,0.4c-0.7,0.4-1.1,0.8-1.5,1.4c-0.3,0.6-0.5,1.1-0.6,1.8 s0,1.3,0.2,1.9c0.2,0.7,0.4,1.3,0.7,1.8c1,1.7,2.1,2.8,3.4,3.4c1.3,0.6,2.8,0.3,4.6-0.7c0.2-0.1,0.4-0.3,0.6-0.4 c0.2-0.1,0.4-0.3,0.6-0.4C83.8,35.5,83.1,34.4,82.4,33.3 M90.4,48c0.2-0.1,0.3-0.2,0.5-0.3l-5-8.7c-0.2,0.1-0.3,0.1-0.4,0.2 c-0.2,0.1-0.3,0.2-0.4,0.3l-0.4,0.2c-0.7,0.4-1.1,0.8-1.4,1.3c-0.3,0.5-0.5,1.1-0.5,1.6c0,0.6,0.1,1.2,0.2,1.8 c0.2,0.6,0.4,1.2,0.8,1.8c0.7,1.3,1.6,2.1,2.6,2.6c1,0.5,2.2,0.3,3.6-0.5C90.1,48.2,90.2,48.1,90.4,48 M50,75 C47.8,73,45.6,71,43.4,69c-0.6-0.5-1.1-1-1.7-1.6c-0.5-0.5-1-1.1-1.5-1.7c-0.9-1.2-1.5-2.4-1.8-3.7c-0.3-1.3-0.3-2.5-0.1-3.7 c0.2-1.2,0.6-2.4,1.3-3.6c0.7-1.2,1.5-2.3,2.4-3.4c1.3-1.5,2.7-2.7,4-3.7c1.3-0.9,2.7-1.5,4.1-1.7c1.4-0.2,2.8-0.1,4.2,0.4 c1.4,0.5,2.9,1.5,4.5,2.9c1.5,1.3,2.9,2.7,4.3,4c1.4,1.4,2.8,2.7,4.3,4c0.6,0.6,1.2,1,1.7,1.3c0.5,0.3,1,0.5,1.6,0.5 c0.5,0,1.1-0.1,1.6-0.4c0.6-0.3,1.2-0.8,1.8-1.4l1.3,1.2c-0.9,1.7-2,3.3-3.2,4.8c-1.2,1.5-2.4,2.9-3.7,4.3L54.3,55.1 c-0.9-0.8-1.7-1.5-2.6-2c-0.9-0.6-1.7-0.9-2.6-1c-0.9-0.1-1.7,0-2.6,0.3c-0.9,0.4-1.8,1-2.7,2.1c-1.2,1.4-1.9,2.6-2.2,3.7 c-0.2,1.1-0.1,2.2,0.3,3.1s1.1,1.9,2,2.8c0.9,0.9,1.9,1.8,2.9,2.8c2.1,1.9,4.2,3.7,6.3,5.5c2.1,1.8,4.3,3.5,6.5,5.2l-3.3,3.7 C54.3,79.2,52.1,77.1,50,75 M18,89.8c2.5-0.1,5.1-0.3,7.6-0.4c2.5-0.1,5-0.3,7.5-0.5l0.2-0.3L21,82.8l3.7-6.8c3,1.5,5.7,3,8.6,4.5 c2.9,1.6,5.9,3.1,8.9,4.5c0.5,0.2,1,0.5,1.5,0.8c0.5,0.3,1,0.5,1.5,0.8c0.6,0.3,1.2,0.5,1.8,0.7c0.6,0.2,1.2,0.3,1.8,0.2 c0.6,0,1.1-0.2,1.6-0.5c0.5-0.3,0.9-0.9,1.3-1.6l1.9,0.9c-0.9,2.1-1.9,4.2-2.8,6.3c-1,2.1-1.9,4.2-2.9,6.3 c-0.5,1.2-1.2,2.3-1.9,3.3c-0.7,1.1-1.5,1.9-2.4,2.6c-0.9,0.7-1.9,1.1-3.1,1.2c-1.1,0.2-2.4-0.1-3.8-0.8c-1.9-0.9-3.3-2.1-4.1-3.7 c-0.8-1.5-1-3.4-0.6-5.5c-1.1,0-2.2,0.1-3.2,0.2c-1.1,0.1-2.2,0.2-3.2,0.3c-0.5,0-1.2,0.1-1.8,0.1c-0.7,0-1.4,0.1-2.1,0.2 c-2,0.2-4.2,0.7-5.1,2.8l-1.8-0.8L18,89.8z M40.9,98.3c0.6,0.1,1.2,0.2,1.8,0.1c0.6-0.1,1.1-0.3,1.6-0.6s0.9-0.9,1.2-1.5l0.8-1.7 l-10.3-4.8c-0.1,0.1-0.2,0.2-0.2,0.4c-0.1,0.1-0.1,0.2-0.2,0.4c-0.4,0.9-0.6,1.7-0.5,2.4c0.1,0.7,0.3,1.4,0.6,2 c0.4,0.6,0.9,1.1,1.5,1.6c0.6,0.5,1.3,0.9,2.1,1.2C39.7,97.9,40.3,98.1,40.9,98.3 M7.9,132.4c0-1.9,0.1-3.7,0.3-5.5 c0.3-2.4,0.9-4.7,1.7-6.7c0.9-2,2-3.7,3.5-5.1c1.5-1.4,3.2-2.4,5.3-3c2-0.7,4.4-0.8,7-0.5c2.9,0.3,5.3,1.2,7.3,2.5 c1.9,1.3,3.5,3,4.6,4.9c1.1,2,1.8,4.2,2.2,6.6c0.3,2.5,0.4,5,0.1,7.5c-0.2,1.3-0.4,2.6-0.7,3.8c-0.3,1.3-0.7,2.5-1.2,3.6l-7.5-2 l0.2-1.8c1-0.1,1.9-0.2,2.6-0.5c0.7-0.2,1.4-0.6,1.8-1c0.5-0.5,0.9-1,1.1-1.7c0.3-0.7,0.5-1.6,0.6-2.6c0.2-1.8,0-3.3-0.6-4.7 c-0.6-1.4-1.4-2.5-2.5-3.5c-1.1-1-2.4-1.8-3.8-2.3c-1.5-0.6-3-1-4.6-1.2c-2-0.2-3.8-0.2-5.5,0.1c-1.7,0.3-3.1,0.8-4.3,1.7 c-1.2,0.8-2.2,2-3,3.4c-0.8,1.4-1.3,3.2-1.5,5.2c0,0.2-0.1,0.4-0.1,0.6c0,0.2,0,0.4,0,0.7l11.4,1.3l-0.8,7.1 c-0.7-0.1-1.4-0.3-2.1-0.4c-0.7-0.1-1.4-0.2-2.1-0.3c-1.5-0.2-2.9-0.3-4.4-0.4c-1.4-0.1-2.9-0.2-4.4-0.4 C8.1,136,7.9,134.2,7.9,132.4 M11.5,173.9c-0.3-2.2-0.6-4.5-1-6.7c-0.3-2-0.7-3.9-1.1-5.9c-0.4-2-0.7-3.9-1.1-5.8 c4-0.4,8-1,11.9-1.5c3.9-0.6,7.9-1.2,11.9-1.9c0.7-0.1,1.3-0.3,1.8-0.5c0.5-0.2,1-0.5,1.4-0.8c0.4-0.4,0.6-0.8,0.8-1.3 c0.2-0.5,0.2-1.2,0.1-2l2-0.3l3.4,19.2l-3.9,0.7c0-1.2-0.1-2.3-0.2-3.5c-0.1-1.1-0.3-2.3-0.5-3.5c-0.1-0.3-0.1-0.6-0.2-0.9 c0-0.3-0.1-0.6-0.2-0.8l-9.5,1.7l1.5,7.8l-3.7,0.2l-1.2-7.4l-6.4,1.1c-0.8,0.1-1.4,0.3-2,0.4c-0.6,0.1-1,0.3-1.4,0.6 c-0.3,0.3-0.5,0.7-0.6,1.2c-0.1,0.5-0.1,1.2,0.1,2.1l0.4,2.3c0.1,0.8,0.3,1.4,0.5,1.8c0.2,0.4,0.5,0.7,0.8,0.9 c0.3,0.2,0.7,0.3,1.2,0.4c0.5,0.1,1.1,0.1,1.8,0.2l0.3,1.9L11.5,173.9z M49.4,238.4c-1.4-1.2-2.8-2.4-4-3.7 c-1.7-1.8-3.1-3.6-4.1-5.6c-1-2-1.6-3.9-1.7-5.9c-0.1-2,0.2-4,1-6c0.8-2,2.2-3.9,4.1-5.7c2.1-2,4.3-3.4,6.6-4 c2.3-0.7,4.5-0.8,6.7-0.4c2.2,0.4,4.4,1.2,6.5,2.5c2.1,1.3,4,2.9,5.8,4.8c0.9,1,1.8,1.9,2.5,3c0.8,1,1.5,2.1,2,3.3l-6.3,4.5 l-1.3-1.3c0.6-0.8,1-1.6,1.3-2.3c0.3-0.7,0.4-1.4,0.4-2.1s-0.2-1.3-0.6-2c-0.4-0.7-0.9-1.4-1.6-2.1c-1.2-1.3-2.5-2.1-4-2.6 c-1.4-0.4-2.9-0.5-4.3-0.3c-1.5,0.2-2.9,0.7-4.2,1.4c-1.4,0.8-2.6,1.7-3.8,2.8c-1.5,1.4-2.6,2.8-3.4,4.3c-0.8,1.5-1.3,2.9-1.5,4.4 c-0.1,1.5,0.1,3,0.7,4.5c0.6,1.5,1.6,3,3.1,4.5c0.2,0.2,0.3,0.3,0.4,0.4c0.2,0.2,0.3,0.3,0.5,0.4l8.2-7.9l5,5.2 c-0.6,0.5-1.1,0.9-1.6,1.4c-0.5,0.5-1,0.9-1.6,1.4c-1.1,1-2.1,2.1-3.1,3.1c-1,1.1-2,2.1-3.1,3.1C52.4,240.6,50.9,239.6,49.4,238.4 M84.2,261.8c-1.9-1.2-3.9-2.4-5.8-3.5c-1.7-1-3.5-1.9-5.2-2.9c-1.7-1-3.5-1.9-5.2-2.9c2.2-3.4,4.3-6.8,6.4-10.2 c2.1-3.4,4.1-6.9,6.1-10.4c0.3-0.6,0.6-1.2,0.8-1.7c0.2-0.5,0.3-1.1,0.2-1.6c0-0.5-0.2-1-0.5-1.5c-0.3-0.5-0.8-0.9-1.4-1.4l1-1.7 l17,9.6l-1.9,3.4c-0.9-0.7-1.9-1.4-2.8-2c-1-0.7-2-1.3-3-1.9c-0.2-0.1-0.5-0.3-0.8-0.4c-0.2-0.1-0.5-0.3-0.8-0.4l-4.8,8.4l6.9,3.8 l-2.2,3l-6.4-3.8l-3.2,5.7c-0.4,0.7-0.7,1.3-1,1.8c-0.3,0.5-0.4,1-0.4,1.4c0,0.4,0.2,0.9,0.5,1.2c0.3,0.4,0.9,0.8,1.7,1.3l2,1.1 c0.7,0.4,1.2,0.6,1.7,0.7c0.4,0.1,0.8,0.1,1.2,0c0.4-0.1,0.7-0.4,1.1-0.7c0.4-0.3,0.8-0.8,1.3-1.2l1.6,0.9L84.2,261.8z M129.3,274.2c0.2-3.9,0.5-7.7,0.9-11.6c0.3-3.8,0.6-7.7,0.9-11.6c-2.2,3.3-4.4,6.7-6.5,10c-2.1,3.4-4.2,6.8-6.3,10.2l-3.6-0.6 c-0.9-3.9-1.8-7.9-2.6-11.8c-0.8-3.9-1.7-7.8-2.7-11.8c-0.9,3.8-1.9,7.5-2.9,11.2c-1,3.7-1.9,7.5-2.8,11.3l-5-1.7 c0.7-1.6,1.5-3.3,2.3-5.4c0.8-2,1.6-4.1,2.3-6.2c0.7-2.1,1.4-4.2,2-6.3c0.6-2.1,1.1-4.2,1.5-6.4l0.1-0.3c0.2-1.4-0.4-2-0.7-2.2 c-0.3-0.2-0.6-0.4-0.9-0.5c-0.4-0.1-0.7-0.2-1.1-0.3l0.4-2.1c1.7,0.3,2.9,0.5,4.1,0.7c0.7,0.1,4.3,0.9,5,1.1 c0.7,0.2,1.4,0.3,2.1,0.5c0.7,3.5,1.4,6.9,2.2,10.3c0.8,3.4,1.5,6.8,2.4,10.2c2-2.9,3.9-5.9,5.8-8.8c1.9-2.9,3.6-5.8,5.4-8.8 l7.5,0.8c-0.5,4-1,8.4-1.4,12.4c-0.4,4-0.6,8-0.8,12.1c-0.1,2,0.3,2.6,0.9,3.3c0.3,0.3,1.2,0.8,2.4,1l-0.4,2L129.3,274.2z M173.9,270.8c-2.2,0.3-4.5,0.6-6.7,1c-2,0.3-3.9,0.7-5.9,1.1c-2,0.4-3.9,0.7-5.8,1.1c-0.4-4-1-8-1.5-11.9 c-0.6-3.9-1.2-7.9-1.9-11.9c-0.1-0.7-0.3-1.3-0.5-1.8c-0.2-0.5-0.5-1-0.8-1.4c-0.4-0.4-0.8-0.6-1.3-0.8c-0.5-0.2-1.2-0.2-2-0.1 l-0.3-2l19.2-3.4l0.7,3.9c-1.2,0-2.3,0.1-3.5,0.2c-1.2,0.1-2.3,0.3-3.5,0.5c-0.3,0-0.6,0.1-0.9,0.2c-0.3,0-0.6,0.1-0.8,0.2l1.7,9.5 l7.8-1.4l0.2,3.7l-7.4,1.1l1.1,6.4c0.1,0.8,0.3,1.4,0.4,2c0.1,0.6,0.3,1,0.6,1.4c0.3,0.3,0.7,0.5,1.2,0.6c0.5,0.1,1.2,0.1,2.1-0.1 l2.3-0.4c0.8-0.1,1.4-0.3,1.8-0.5c0.4-0.2,0.7-0.5,0.9-0.8c0.2-0.3,0.3-0.7,0.4-1.2c0.1-0.5,0.1-1.1,0.2-1.8l1.9-0.3L173.9,270.8z M190.9,249.5l3.5,8.3l2.4,5.6l-7.2,3c-1.3-3.7-2.6-7.4-3.9-11c-1.4-3.6-2.8-7.2-4.3-10.8c-0.3-0.8-0.7-1.4-1-2 c-0.3-0.5-0.8-0.9-1.2-1.2c-0.5-0.3-1-0.4-1.6-0.4c-0.6,0-1.3,0.2-2.2,0.5l-0.7-1.7c1.4-1,2.9-1.9,4.4-2.6c1.5-0.8,3.1-1.5,4.6-2.1 l1.1-0.5L190.9,249.5z M218.7,218.7c1.2,1.7,2.4,3.3,3.7,5c3.7,4.9,7.4,9.7,11.2,14.6l-3.4,3.2c-8.8-2.2-18.1-4.2-27.1-5.8 c2.2,2.7,4.4,5.5,6.6,8.2c2.2,2.7,4.6,5.5,7,8.1l-4.3,2.6c-1-1.6-1.9-2.9-3-4.5c-1.1-1.6-2.2-3.1-3.4-4.7c-1.3-1.8-2.6-3.6-3.9-5.3 c-1.3-1.8-2.6-3.5-4-5.2c-0.8-1-1.6-1.7-2.4-1.8c-0.8-0.2-1.7,0.1-2.9,0.8l-1.1-1.4c0.7-0.7,1.4-1.4,2.1-2.1 c0.7-0.7,1.5-1.3,2.3-1.9c0.3-0.3,0.7-0.5,1.1-0.8c0.4-0.2,0.7-0.5,1.1-0.7c4.4,1,8.8,1.9,13.1,2.8c4.4,0.9,8.7,1.7,13.2,2.5 c-2.2-2.6-4.4-5.2-6.6-7.9c-2.2-2.6-4.2-4.9-6.6-7.4l3.7-3.3C216.3,215.3,217.5,217,218.7,218.7 M254,195.1c1.4,2,2.2,4.2,2.5,6.5 c0.3,2.3,0.1,4.7-0.6,7.1c-0.7,2.4-1.8,4.9-3.3,7.3c-0.8,1.2-1.5,2.4-2.4,3.5c-0.8,1.1-1.7,2.2-2.7,3.2c-2.4-1.7-4.8-3.4-7.3-5 c-2.4-1.6-4.9-3.2-7.4-4.8l-4.9-3.1c-0.6-0.4-1.2-0.7-1.8-0.9c-0.5-0.2-1.1-0.3-1.6-0.3c-0.5,0-1,0.2-1.5,0.5 c-0.5,0.3-1,0.8-1.5,1.4l-1.6-1c1.5-2.4,3-4.8,4.5-7.1c1.5-2.4,2.9-4.7,4.5-7.1c1.2-1.9,2.5-3.4,3.9-4.7s2.9-2.2,4.5-2.7 c1.6-0.5,3.3-0.7,5.1-0.4c1.8,0.3,3.7,1,5.7,2.3C250.6,191.2,252.6,193,254,195.1 M228.8,200.9c-0.2,0.3-0.3,0.6-0.5,0.9l17,10.2 c0.6,0.4,1.2,0.7,1.7,1.1c0.5,0.3,1,0.5,1.5,0.6c0.5,0.1,0.9,0,1.4-0.3c0.5-0.3,0.9-0.8,1.4-1.6c0.9-1.4,1.3-2.9,1.2-4.3 c-0.1-1.4-0.4-2.8-1.1-4.1c-0.7-1.3-1.5-2.5-2.7-3.6c-1.1-1.1-2.3-2-3.5-2.8c-1-0.6-2.1-1.2-3.4-1.7s-2.5-0.8-3.7-0.9 c-1.1-0.1-2.1,0-2.9,0.2c-0.9,0.2-1.6,0.6-2.4,1.1c-0.7,0.5-1.4,1.1-2,1.9c-0.6,0.7-1.1,1.5-1.7,2.4 C229.1,200.3,228.9,200.6,228.8,200.9 M273.4,165.9c-0.7,2.2-1.3,4.3-1.9,6.5c-0.5,1.9-1,3.8-1.5,5.8c-0.5,1.9-1,3.9-1.5,5.8 c-3.8-1.3-7.7-2.5-11.5-3.6c-3.8-1.1-7.7-2.2-11.6-3.3c-0.7-0.2-1.3-0.3-1.9-0.4c-0.6-0.1-1.1,0-1.6,0.2c-0.5,0.2-0.9,0.4-1.3,0.9 c-0.4,0.4-0.7,1-1,1.7l-1.9-0.5l5.1-18.9l3.8,1c-0.5,1.1-0.9,2.2-1.3,3.3c-0.4,1.1-0.7,2.2-1,3.4c-0.1,0.3-0.2,0.6-0.2,0.9 c-0.1,0.3-0.1,0.6-0.2,0.8l9.3,2.5l2-7.6l3.4,1.4l-2.1,7.2l6.3,1.7c0.8,0.2,1.4,0.4,2,0.5c0.6,0.1,1.1,0.1,1.5,0s0.8-0.4,1.1-0.8 c0.3-0.4,0.6-1.1,0.8-2l0.6-2.2c0.2-0.8,0.3-1.4,0.3-1.8c0-0.4-0.1-0.8-0.3-1.1s-0.5-0.6-0.9-0.9c-0.4-0.3-0.9-0.6-1.5-0.9l0.5-1.8 L273.4,165.9z M274.5,126.2c0.1,1.4,0.1,2.8,0.1,4.3c-2.6,0.3-5.3,0.5-7.9,0.9c-2.6,0.3-5.2,0.7-7.8,1.1c-0.8,0.1-1.5,0.2-2.3,0.4 c-0.7,0.1-1.5,0.3-2.3,0.4c-0.7,0.1-1.6,0.2-2.5,0.3c-0.9,0.1-1.8,0.3-2.6,0.6c-0.8,0.3-1.4,0.8-1.9,1.4c-0.5,0.6-0.6,1.5-0.4,2.6 l-2,0.4c-0.4-2.2-0.7-4.4-1.1-6.5c-0.4-2.2-0.7-4.3-1.1-6.6c-0.2-1.4-0.3-2.7-0.3-4c0-1.3,0.2-2.4,0.6-3.4c0.4-1,1-1.9,2-2.6 c0.9-0.7,2.2-1.2,3.8-1.5c1.8-0.3,3.3,0,4.7,1c1.4,0.9,2.3,2.2,2.9,3.8c-0.3-2.3,0.1-4.3,1.2-5.9c1.1-1.6,2.8-2.6,5.2-3 c1.8-0.3,3.4-0.1,4.7,0.6c1.3,0.7,2.4,1.6,3.3,2.8c0.9,1.2,1.6,2.6,2.1,4.1c0.5,1.5,0.9,3.1,1.1,4.6 C274.3,123.4,274.4,124.8,274.5,126.2 M246.7,126.7c0,0.2,0.1,0.4,0.1,0.6l9.9-1.6c0-0.2,0-0.3,0-0.5c0-0.2-0.1-0.4-0.1-0.5 l-0.1-0.4c-0.1-0.7-0.4-1.4-0.7-1.8c-0.4-0.5-0.8-0.8-1.3-1.1c-0.5-0.2-1.1-0.4-1.7-0.4c-0.6,0-1.3,0-1.9,0.1 c-1.4,0.2-2.6,0.7-3.4,1.5c-0.8,0.8-1.1,2-0.9,3.5C246.6,126.3,246.6,126.5,246.7,126.7 M263.3,124.6c1.3-0.3,2.6-0.5,4-0.7 c0.4-0.1,0.9-0.2,1.3-0.3c0.4-0.1,0.8-0.3,1.1-0.5c0.3-0.2,0.5-0.5,0.7-0.9c0.2-0.3,0.2-0.8,0.1-1.4c-0.1-0.7-0.4-1.4-0.8-1.9 c-0.4-0.5-0.9-0.9-1.4-1.2c-0.6-0.3-1.2-0.5-1.9-0.5c-0.7-0.1-1.3-0.1-2,0c-1.9,0.3-3.4,1-4.4,2c-1,1-1.3,2.5-1,4.6 c0,0.2,0.1,0.5,0.1,0.7c0.1,0.2,0.1,0.5,0.1,0.7C260.7,125.1,262,124.9,263.3,124.6 M258.5,76c0.9,2.1,1.8,4.2,2.7,6.2 c0.8,1.8,1.7,3.6,2.5,5.4c0.9,1.8,1.7,3.6,2.6,5.4c-3.8,1.5-7.5,3-11.2,4.5c-3.7,1.6-7.3,3.2-11,4.9c-0.6,0.3-1.2,0.6-1.7,0.9 c-0.5,0.3-0.8,0.7-1.1,1.1c-0.3,0.4-0.4,0.9-0.4,1.5c0,0.5,0.1,1.2,0.4,1.9l-1.8,0.8l-8.2-17.7l3.6-1.6c0.3,1.1,0.7,2.2,1.1,3.3 c0.4,1.1,0.8,2.2,1.3,3.3c0.1,0.3,0.2,0.5,0.4,0.8c0.1,0.3,0.3,0.5,0.4,0.8l8.8-4l-3.4-7.1l3.5-1.2l3,6.8l5.9-2.7 c0.7-0.3,1.3-0.6,1.8-0.9c0.5-0.3,0.9-0.6,1.2-0.9c0.3-0.4,0.4-0.8,0.3-1.3c0-0.5-0.3-1.2-0.6-2l-1-2.1c-0.3-0.7-0.6-1.2-0.9-1.6 c-0.3-0.3-0.6-0.6-1-0.7c-0.4-0.1-0.8-0.1-1.3-0.1c-0.5,0.1-1.1,0.2-1.8,0.3l-0.8-1.7L258.5,76z M23.4,203.7c1.5-2,3-4.1,4.4-6.1 c1.5-2,2.9-4.1,4.3-6.1L32,191L19.9,197l-3-7.1c3.1-1.4,5.9-2.6,8.9-3.8c3-1.3,6.1-2.6,9.1-4.1c0.5-0.2,1-0.5,1.6-0.7 c0.5-0.2,1.1-0.5,1.6-0.7c0.6-0.3,1.2-0.6,1.7-1c0.5-0.4,1-0.8,1.3-1.3c0.3-0.5,0.6-1,0.6-1.6s-0.1-1.3-0.4-2l1.9-0.9 c1,2.1,2.1,4.1,3.1,6.2c1,2.1,2,4.1,3.1,6.2c0.6,1.2,1,2.3,1.4,3.5c0.4,1.2,0.5,2.4,0.5,3.5c-0.1,1.1-0.4,2.2-1,3.2 c-0.6,1-1.6,1.8-3,2.5c-1.9,0.9-3.7,1.2-5.4,0.9c-1.7-0.4-3.3-1.4-4.6-3c-0.7,0.9-1.3,1.7-1.9,2.7c-0.6,0.9-1.2,1.8-1.8,2.7 c-0.3,0.4-0.7,0.9-1.1,1.5c-0.4,0.6-0.8,1.2-1.2,1.8c-1.1,1.7-2.1,3.7-1.1,5.7l-1.7,0.9L23.4,203.7z M44.4,191.3 c0.5-0.4,0.9-0.8,1.2-1.3c0.3-0.5,0.5-1,0.5-1.6c0-0.6-0.1-1.2-0.4-1.9l-0.8-1.7l-10.2,5c0,0.2,0.1,0.3,0.1,0.4 c0,0.1,0.1,0.3,0.2,0.4c0.4,0.9,0.9,1.5,1.5,1.9c0.6,0.4,1.2,0.7,1.9,0.7c0.7,0.1,1.4,0,2.2-0.2c0.7-0.2,1.5-0.5,2.3-0.8 C43.4,192,43.9,191.6,44.4,191.3 M186.2,40.9c1.1-1.7,2.2-3.5,3.3-5.2c3.2-5.2,6.4-10.4,9.6-15.7l4.2,2c1.1,9,2.6,18.4,4.4,27.4 c1.7-3.1,3.5-6.1,5.2-9.1s3.4-6.3,5-9.5l4,3c-1.1,1.6-2,2.9-3.1,4.5c-1.1,1.6-2.1,3.2-3.2,4.9c-1.2,1.8-2.4,3.7-3.6,5.6 c-1.2,1.9-2.3,3.7-3.4,5.6c-0.7,1.1-1,2.1-0.9,2.9c0.1,0.8,0.7,1.6,1.8,2.4l-0.9,1.5c-0.9-0.4-1.8-0.8-2.7-1.2 c-0.9-0.4-1.8-0.9-2.6-1.4c-0.4-0.2-0.7-0.5-1.1-0.7c-0.4-0.2-0.7-0.5-1-0.8c-0.7-4.5-1.4-8.9-2.1-13.3c-0.7-4.4-1.5-8.8-2.4-13.2 c-1.6,3-3.3,6-4.9,9c-1.7,3-3.1,5.7-4.6,8.8l-4.4-2.2C183.9,44.4,185,42.6,186.2,40.9 M240.1,50.5c-0.9,2.3-1.8,4.7-2.8,7 c-0.9,2.3-1.8,4.7-2.7,7l0.2,0.3l10.4-8.8l4.7,6.2c-2.6,2.1-5.2,4-7.8,6c-2.6,2-5.2,4.1-7.8,6.2c-0.4,0.4-0.9,0.7-1.3,1.1 c-0.5,0.4-0.9,0.7-1.3,1.1c-0.5,0.4-1,0.9-1.4,1.4c-0.4,0.5-0.8,1-1,1.5c-0.2,0.5-0.3,1.1-0.2,1.7c0.1,0.6,0.4,1.2,0.9,1.8 l-1.6,1.4c-1.5-1.7-3-3.5-4.5-5.2c-1.5-1.7-3-3.5-4.5-5.2c-0.8-1-1.6-2-2.3-3.1c-0.7-1.1-1.1-2.2-1.3-3.3c-0.2-1.1-0.2-2.2,0.2-3.3 c0.3-1.1,1.1-2.1,2.3-3.2c1.6-1.4,3.3-2.1,5-2.2c1.7-0.1,3.5,0.5,5.2,1.7c0.4-1,0.8-2,1.2-3c0.3-1,0.7-2.1,1.1-3.1 c0.2-0.5,0.4-1.1,0.7-1.7c0.2-0.7,0.5-1.3,0.7-2c0.6-1.9,1.1-4.2-0.4-5.8l1.5-1.3L240.1,50.5z M222.9,67.8c-0.4,0.5-0.7,1-0.8,1.6 c-0.2,0.5-0.2,1.1-0.1,1.7c0.1,0.6,0.4,1.1,0.9,1.7l1.2,1.4l8.7-7.4c-0.1-0.1-0.2-0.3-0.2-0.4c-0.1-0.1-0.2-0.2-0.3-0.3 c-0.6-0.7-1.3-1.2-2-1.5c-0.7-0.3-1.4-0.3-2-0.2c-0.7,0.1-1.4,0.3-2.1,0.7c-0.7,0.4-1.3,0.8-2,1.4 C223.7,66.8,223.3,67.3,222.9,67.8"/></g></svg>