<?xml version="1.0" encoding="UTF-8"?><svg xmlns="http://www.w3.org/2000/svg" id="Logo_RZ_100_" viewBox="0 0 127.56 39.93"><defs><style>.cls-1{fill:#fff;}</style></defs><path class="cls-1" d="M3.85,7.1c-7.38,7.96-3.04,21.2,3.8,25.86,5.24,6.33,11.49,7.77,16.54,6.05,11.02-1.51,19.25-18.14,11.78-28.16C32.42,3.51,17.43-7.33,3.85,7.1ZM8.92,33.81c1.12.71,2.46,1.34,3.8,1.72,2.44,2.1,5.78,3.3,8.67,3.56-4.14.47-8.76-1.05-12.46-5.28ZM2.5,13.95c.57-2.1,1.68-4.63,3.03-6.42.84-1.07,1.82-1.87,2.98-2.62,2.59-1.66,3.73-2.3,4.73-2.73,4.33-1.69,9.07-.25,12.81,2.65-4.66-1.27-14.85-1.03-20.15,5.13-6.34,7.35,1.05,16.7,1.4,17.38,1.15,2.72,2.45,5.32,4.71,7.52-1.41-.49-2.7-1.23-3.95-2.08C3.96,27.77.61,20.71,2.5,13.95ZM29.8,31.75c3.32-3.48,5.33-9.1,4.11-15.51,1.57,1.83,2.64,4.14,2.79,6.67-1.41,4.22-2.93,7.57-6.9,8.84ZM12.82,35.12c-2.21-1.95-3.59-4.23-4.76-6.91,4.57,5.15,9.84,7.56,17.11,5.73-4.41,2.27-8.56,2.28-12.35,1.18ZM16.35,31.68c-3.1-2.94-5.41-7.17-4.98-11.39,1.08-7.19,10.78-13.98,19.34-7.05,2.39,8.85-.02,16.07-3.37,19.18-4.1.93-7.36,1.39-10.99-.74ZM23.02,38.76c-2.4.1-6.3-.66-9.42-2.99h0s-.02-.02-.03-.02c6.56,1.54,12.44-.98,14.86-2.75,4.06-1.35,6.15-2.69,8.32-8.53-.28,7.06-7.24,12.24-13.72,14.29ZM37.69,24.8c.08-1.33.04-2.36-.05-3.35.38-1.97.27-4.15-.15-5.95.79,2.37,1.06,5.97.2,9.3ZM34.21,8.87c-1.56-1.48-3.39-2.34-5.02-2.98C26.27,2.64,18.94-.75,13.02,1.66c-1.4.57-4.45,2.58-5.26,3.16-.6.44-1.52,1.04-2.57,2.38-1.49,1.92-2.5,4.44-3.16,6.84-1.65,5.95,1.09,12.9,4.73,17.76-3.52-2.96-11.6-15.03-1.57-25.35C14.37-3.01,27.11-.93,34.21,8.87Z"/><path class="cls-1" d="M63.36,3.5c-.32.13-.55.36-.67.69-.12.34-.18.88-.18,1.62v14.7c0,.74.06,1.28.18,1.62.12.34.34.57.67.69.32.13.84.2,1.56.23v.59c-.82-.06-2.08-.09-3.79-.09-1.58,0-2.84.03-3.76.09v-.59c.71-.03,1.23-.11,1.56-.23.32-.13.54-.36.67-.69.12-.34.18-.88.18-1.62v-7.12h-9.64v7.12c0,.74.06,1.28.18,1.62.12.34.34.57.67.69.32.13.84.2,1.56.23v.59c-.91-.06-2.16-.09-3.76-.09-1.7,0-2.96.03-3.79.09v-.59c.71-.03,1.23-.11,1.56-.23.32-.13.54-.36.67-.69.12-.34.18-.88.18-1.62V5.81c0-.74-.06-1.28-.18-1.62-.12-.34-.34-.57-.67-.69-.32-.13-.84-.2-1.56-.23v-.59c.82.06,2.08.09,3.79.09,1.6,0,2.85-.03,3.76-.09v.59c-.71.03-1.23.11-1.56.23-.32.13-.55.36-.67.69-.12.34-.18.88-.18,1.62v6.99h9.64v-6.99c0-.74-.06-1.28-.18-1.62-.12-.34-.34-.57-.67-.69-.32-.13-.84-.2-1.56-.23v-.59c.93.06,2.18.09,3.76.09,1.7,0,2.96-.03,3.79-.09v.59c-.71.03-1.23.11-1.56.23Z"/><path class="cls-1" d="M90.06,3.5c-.32.13-.55.36-.67.69-.12.34-.18.88-.18,1.62v14.7c0,.74.06,1.28.18,1.62.12.34.34.57.67.69.32.13.84.2,1.56.23v.59c-.93-.06-2.18-.09-3.76-.09-1.7,0-2.96.03-3.79.09v-.59c.71-.03,1.23-.11,1.55-.23.32-.13.54-.36.66-.69.12-.34.18-.88.18-1.62V4.66l-7.13,19.14h-.48l-7.47-19.23v15.64c0,.76.07,1.34.2,1.72.13.39.39.66.76.83.37.17.95.27,1.73.3v.59c-.7-.06-1.71-.09-3.02-.09-1.18,0-2.09.03-2.75.09v-.59c.68-.03,1.19-.13,1.53-.3s.56-.45.69-.83c.13-.39.19-.96.19-1.72V5.81c0-.74-.06-1.28-.18-1.62-.12-.34-.34-.57-.67-.69-.32-.13-.84-.2-1.56-.23v-.59c.65.06,1.56.09,2.75.09,1.04,0,1.89-.03,2.53-.09l6.51,17.19,6.37-17.1h1.4c1.58,0,2.84-.03,3.76-.09v.59c-.71.03-1.23.11-1.56.23Z"/><path class="cls-1" d="M98.03,21.62c.85,1.24,2.16,1.86,3.92,1.86.68,0,1.3-.14,1.89-.42.58-.28,1.06-.72,1.42-1.31.36-.59.54-1.33.54-2.22,0-.76-.19-1.44-.56-2.05-.37-.6-.88-1.15-1.51-1.66-.64-.5-1.49-1.07-2.55-1.71-1.18-.7-2.12-1.34-2.84-1.9-.71-.56-1.3-1.23-1.76-2-.46-.78-.69-1.69-.69-2.74,0-1.12.25-2.06.76-2.84.51-.77,1.18-1.35,2.03-1.73.84-.38,1.77-.57,2.79-.57.61,0,1.13.05,1.57.15.44.1.8.23,1.09.38.29.15.61.34.95.57.44.28.78.42,1.01.42.18,0,.32-.1.42-.31.1-.21.17-.54.23-.99h.68c-.1,1.16-.14,3.17-.14,6.05h-.68c-.08-1.01-.3-1.95-.66-2.81-.36-.86-.89-1.56-1.59-2.09-.7-.54-1.57-.8-2.61-.8-.69,0-1.32.14-1.87.43s-.98.69-1.29,1.22c-.31.52-.46,1.12-.46,1.79,0,1.07.32,1.93.97,2.59.65.66,1.4,1.25,2.26,1.77.86.53,1.44.88,1.74,1.06,1.24.78,2.23,1.46,2.95,2.03.72.57,1.3,1.24,1.74,2,.43.76.65,1.64.65,2.64,0,1.22-.28,2.25-.84,3.09-.56.84-1.31,1.48-2.26,1.9-.95.42-2.01.64-3.19.64-.95,0-1.72-.1-2.33-.3-.61-.2-1.18-.47-1.72-.8-.44-.28-.78-.42-1.01-.42-.18,0-.32.1-.42.31-.1.21-.17.54-.23.99h-.68c.08-1.08.12-3.45.12-7.1h.68c.13,2.01.63,3.63,1.48,4.87Z"/><path class="cls-1" d="M118.18,3.5c-.32.13-.55.36-.67.69-.12.34-.18.88-.18,1.62v14.7c0,.74.06,1.28.18,1.61.12.33.34.56.67.67.32.12.84.17,1.56.17h2.17c1.23,0,2.17-.17,2.81-.52.64-.35,1.1-.9,1.39-1.66.28-.76.5-1.88.66-3.36h.68c-.06.62-.09,1.43-.09,2.43,0,1.12.07,2.38.2,3.79-1.34-.06-3.6-.09-6.79-.09-3.79,0-6.66.03-8.59.09v-.59c.71-.03,1.23-.11,1.56-.23.32-.13.54-.36.67-.69.12-.34.18-.88.18-1.62V5.81c0-.74-.06-1.28-.18-1.62-.12-.34-.34-.57-.67-.69-.32-.13-.84-.2-1.56-.23v-.59c.82.06,2.08.09,3.79.09,1.6,0,2.85-.03,3.76-.09v.59c-.71.03-1.23.11-1.56.23Z"/><path class="cls-1" d="M46.05,38.1c.46.59,1.26,1.09,2.21,1.09,1.37,0,1.95-.88,1.95-1.81,0-1.27-.98-1.78-2.03-2.3-1.14-.56-2.36-1.14-2.36-2.73,0-1.46,1.17-2.42,2.6-2.42,1.03,0,1.84.36,2.42,1l-.46.61c-.51-.61-1.2-.87-1.97-.87-.97,0-1.77.65-1.77,1.65s.93,1.5,1.92,2.01c1.17.61,2.46,1.26,2.46,3.01,0,1.32-.82,2.58-2.78,2.58-1.17,0-2.1-.48-2.71-1.2l.49-.61Z"/><path class="cls-1" d="M58.75,30.81h-2.36v-.72h5.51v.72h-2.36v8.93h-.8v-8.93Z"/><path class="cls-1" d="M67.56,30.09h.81v9.65h-.81v-9.65Z"/><path class="cls-1" d="M74.75,30.09h4.72v.72h-3.91v3.62h3.81v.72h-3.81v4.59h-.81v-9.65Z"/><path class="cls-1" d="M87.24,30.81h-2.36v-.72h5.51v.72h-2.36v8.93h-.8v-8.93Z"/><path class="cls-1" d="M96.05,30.09h.81v6.63c0,1.65.77,2.47,2.1,2.47s2.1-.82,2.1-2.47v-6.63h.8v6.61c0,2.08-1.06,3.21-2.89,3.21s-2.91-1.13-2.91-3.21v-6.61Z"/><path class="cls-1" d="M109.05,31.71v8.03h-.81v-9.65h.81l4.28,7.9v-7.9h.81v9.65h-.78l-4.31-8.03Z"/><path class="cls-1" d="M123.8,29.93c1.32,0,2.16.71,2.73,1.66l-.65.35c-.45-.77-1.14-1.29-2.08-1.29-1.66,0-2.76,1.78-2.76,4.27s1.1,4.27,2.76,4.27c.91,0,1.61-.45,1.98-.93v-2.58h-2.53v-.72h3.3v3.6c-.65.85-1.62,1.36-2.75,1.36-2.17,0-3.6-2.04-3.6-5.01s1.43-4.99,3.6-4.99Z"/></svg>