<?xml version="1.0" encoding="UTF-8"?><svg xmlns="http://www.w3.org/2000/svg" id="BEKB_2020_Förderfonds_D" viewBox="0 0 157.98 43.55"><defs><style>.cls-1{fill-rule:evenodd;}.cls-1,.cls-2{fill:#fff;}.cls-3{fill:#476eb3;}</style></defs><path class="cls-2" d="M72.38,31.31c.06.19.07.3.05.51-.03.21-.05.38-.06.42-.24,1.31-.35,1.24-1.55,1.85-.04,0-.36.16-.4.18-.86.41-1.62.78-2.45,1.26-.83.48-1.92,1.06-2.16,1.86-.03.13-.1.28-.07.38-.1.99,1.37,1.35,2.05.89.33-.23.66-.47,1.01-.65.51-.27,1.86-1.2,1.96-.92.08.21-.08.7-.2,1.17-.19.95-.83,2.29-.99,4.06-.01.15-.03.97.08,1.08.41.39,1.24-.09,1.39-1.06.18-.4.36-.96.51-1.38.41-1.15.94-3.4,1.38-4.54.1-.27.44-.83.66-.95,1.21-.65,2.06-.99,3.34-1.35.24-.07.61-.32.63-.51.04-.43.09-.75-.31-1.03-.55-.39-1.16-.53-1.81-.43-.34.05-.64.17-1.14.14.15-.61.26-1.1.38-1.59.13-.52.37-.88.86-1,.6-.14,1.18-.41,1.77-.57.88-.23,1.77-.41,2.66-.64.48-.12.68-.23,1.17-.45.17-.38.15-.67.07-.91-.25-.73-.68-.66-1.39-.61-.1.03-.2.03-.3.02-1.94.09-3.13.37-4.64.94-1.73.65-3.46,1.34-5.12,2.2-1.03.53-1.96,1.37-2.91,2.12-.56.45-.71,1.24-.42,1.79.29.55,1.14.86,1.64.54.44-.29.85-.64,1.28-.95.78-.56,1.57-1.12,2.36-1.64.64-.33.43-.27.69-.26Z"/><path class="cls-2" d="M139.76,32.72s.05.06.08.08c-.21.55-.41,1.11-.64,1.65-.15.35-.08.63.16.87.16.16.34.29.52.42.39.27.76.14.98-.3.3-.63.59-1.27.96-1.86.72-1.14,1.05-2.31.61-3.62-.24-.72-.95-1.12-1.6-.74-.49.28-.93.65-1.41.95-.16.1-.35.18-.52.17-.07,0-.14-.27-.16-.42-.04-.31-.43-.78-.73-.82-.38-.06-.72.01-.88.45-.13.34-.26.69-.39,1.03-.45,1.16-.91,2.31-1.34,3.48-.11.3-.23.68-.14.95.28.85,1.21,1.03,1.83.38.71-.75,1.41-1.52,2.12-2.26.16-.16.36-.27.55-.4Z"/><path class="cls-3" d="M87.08,22.92s.09.05.14.07c-.03.28-.05.57-.11.85-.17.76-.04,1.03.61,1.37.33.17.56.08.71-.26.32-.73.69-1.44.92-2.2.16-.51.14-1.08.14-1.62,0-.39-.36-.58-.7-.41-.26.13-.41.06-.47-.21-.03-.14-.06-.29-.08-.44-.03-.37-.33-.79-.63-.86-.33-.08-.7.12-.92.53-.47.85-.96,1.7-1.37,2.58-.26.56-.42,1.19-.54,1.8-.03.16.24.41.42.55.07.05.32-.08.42-.19.5-.52.97-1.05,1.45-1.58Z"/><path class="cls-2" d="M87.08,22.92c-.48.53-.95,1.07-1.45,1.58-.11.11-.36.23-.42.19-.18-.14-.45-.39-.42-.55.12-.61.28-1.23.54-1.8.41-.88.9-1.73,1.37-2.58.22-.41.59-.61.92-.53.29.07.59.49.63.86.02.15.04.29.08.44.07.27.21.33.47.21.34-.17.7.03.7.41,0,.54.01,1.11-.14,1.62-.23.76-.6,1.47-.92,2.2-.15.34-.38.42-.71.26-.66-.34-.78-.61-.61-1.37.06-.28.07-.57.11-.85-.05-.02-.09-.05-.14-.07Z"/><path class="cls-2" d="M157.56,32.43c-.01-.82.01-1.65.09-2.46.04-.45.1-.9.15-1.34.07-.51.13-1.04.17-1.57.02-.28-.11-.55-.22-.82-.03-.06-.06-.12-.08-.18-.09-.22-.35-.28-.58-.11-.11.08-.21.16-.32.23-.26.19-.54.39-.79.6-.44.37-.87.76-1.29,1.14-.29.26-.58.51-.86.77l-.47.41c-.62.55-1.27,1.12-1.92,1.65-.67.55-1.39,1.06-2.09,1.55-.05.04-.2.04-.32.02-.02-.05-.03-.18,0-.23.17-.39.34-.78.52-1.16.21-.46.42-.93.62-1.4.52-1.26,1.01-2.52,1.52-3.81.09-.24.18-.5.27-.74.13-.37.26-.74.42-1.1.2-.44.2-.88,0-1.39-.03-.1-.12-.16-.2-.21-.03-.02-.06-.04-.08-.06l-.08-.08-.07.09c-.09.11-.23.16-.38.22-.21.08-.45.17-.58.45-.28.61-.56,1.21-.85,1.82-.28.59-.56,1.18-.83,1.78-.09.21-.19.28-.42.29-.21.02-.5.07-.7.23l-.21.17c-.58.45-1.17.92-1.69,1.45-.49.5-1.04,1.11-1.37,1.78-.53,1.05-.93,2.17-1.29,3.23-.26.76-.19,1.53.19,2.19.24.41.54.63.86.62.25,0,.51-.14.77-.4.37-.37.75-.73,1.13-1.09.15-.14.3-.29.45-.43.09-.09.25-.24.31-.24.05,0,.16.19.21.28.2.35.44.67.84.67.2,0,.44-.09.76-.27.17-.1.33-.2.5-.31,1.21-.81,2.29-1.8,3.33-2.77.22-.2.43-.4.65-.6.23-.21.44-.43.65-.65.19-.2.4-.41.6-.61.29-.26.59-.51.89-.75.12-.1.23-.19.35-.29h0s-.04,1.63-.04,1.63c0,.43-.02.88-.02,1.32,0,.22-.09.5-.3.56-1.22.35-.97.69-.93.79.15.39.37.62.83.99.27.22.55.4.89.67.18.15.36.22.55.22.35,0,.61-.28.69-.72.02-.15.03-.31,0-.47-.02-.19-.05-.37-.08-.55-.05-.33-.1-.66-.11-1ZM148.07,29.66c-.34,1.33-1.25,2.36-2.12,3.37l-.3.35c-.15.18-.28.32-.5.34,0-.01,0-.03,0-.04,0-.08,0-.17.01-.23.53-1.66,1.36-2.98,2.52-4.04.08-.08.21-.18.31-.18.04,0,.08.01.11.04.01.02.04.12-.03.39Z"/><path class="cls-2" d="M124.59,29.33c.31-.23.47-.58.34-1.03-.1-.33-.35-.48-.7-.46-1.05.07-2.1.08-3.15.22-1.13.16-2.2.62-3.05,1.45-.52.5-1.05.95-1.61,1.4-1.07.86-2.04,1.86-2.88,2.99-.09.13-.25.21-.37.32-.04-.02-.07-.03-.11-.05,0-.26-.02-.52.02-.78.2-1.23.62-2.43.2-3.71-.28-.86-.97-1.04-1.61-.49-.97.83-1.89,1.72-2.81,2.61-.5.49-.94,1.05-1.45,1.54-.27.26-.82,1.05-1.05.79-.15-.26,1.57-2.01,2.05-2.88.53-.84.46-.7.7-1.69.44-1.31-.96-2.14-2.34-1.19-.72.5-1.05.86-1.54,1.65-.75,1.03-.58,1.59-1.79,2.82-.68.69-1.45,1.29-2.23,1.87-.42.39-.98.7-1.25.47-.17-.22.03-1.01.44-1.74.83-1.31,1.63-2.64,2.2-4.1.49-1.28.99-2.56,1.49-3.83.21-.53-.01-.98-.15-1.45-.02-.08-.13-.14-.21-.17-.58-.18-.83-.11-1.17.47-.4.69-.75,1.4-1.12,2.11-.52.99-1.06,1.96-1.52,2.98-.18.39-.35.47-.69.37-.54-.17-1,0-1.47.31-.76.51-1.45,1.1-1.95,1.87-.53.8-1.04,1.63-1.4,2.51-.33.83-.46,1.74-.66,2.62-.16.69.17,1.33.86,1.81.42.29,1.03.11,1.49-.29.6-.53,1.17-1.12,1.74-1.69.39-.38.49-.39.86-.04.81.78,1.62.86,2.55.2.82-.58,1.61-1.2,2.41-1.81.27-.2.52-.17.6.17.19.75.73,1.12,1.37,1.37.14.06.33.04.49,0,.86-.2,1.43-.88,2.03-1.46.87-.84,1.65-1.78,2.49-2.66.12-.13.3-.19.52-.32.01.24.03.4.03.55-.03.86-.18,1.74-.08,2.57.11.88.47,1.67,1.35,2.1.43.21.74.16,1.01-.19.59-.77,1.2-1.54,1.72-2.36.72-1.11,1.57-2.1,2.51-3.01.69-.67,1.49-1.19,2.34-1.57.79-.36,1.64-.54,2.5-.61.69-.06,1.4-.08,2.02-.54ZM97.19,34.67c-.18.29-.4.56-.62.81-.1.11-.36.34-.5.3-.14-.35.42-1.46.85-2.03.06-.07.25-.14.3-.1.11.09.24.26.23.38-.03.22-.14.44-.26.63ZM105.93,31.87c-.14-.12.38-1.04,1.01-1.75.05-.06.17-.08.2-.06.08.04.13.17.06.41-.07.25-.17.41-.28.58-.16.26-.26.4-.49.6-.17.14-.37.34-.49.22Z"/><path class="cls-2" d="M135.11,29.51c-.02-.35-.08-.7-.17-1.03-.08-.33-.67-.58-.97-.45-1.29.54-2.59,1.09-3.89,1.61-.43.17-.89.24-1.33.36-.03-.04-.06-.09-.1-.13.05-.18.07-.37.16-.54,1.29-2.65,2.7-5.23,4.34-7.68.42-.62.47-1.26.17-1.92-.3-.65-1.16-.72-1.54-.08-.44.73-.82,1.48-1.22,2.23-.98,1.86-1.97,3.72-2.93,5.6-.41.81-.82,1.63-1.11,2.48-.25.73-.68,1.02-1.39,1.14-.83.13-1.66.38-2.47.61-.4.11-.82.73-.77,1.03.1.53.55.93,1.07.88.47-.05.93-.21,1.4-.29.21-.04.47-.07.64.02.08.05.05.4,0,.59-.45,1.6-.92,3.2-1.38,4.81-.27.94-.55,1.89-.82,2.83-.13.45.06.82.48.96.7.22.91.16,1.1-.42.25-.78.46-1.57.7-2.36.67-2.17,1.33-4.34,2.01-6.51.14-.46.36-.83.88-.96.64-.17,1.26-.42,1.9-.61.16-.05.33-.02.54-.04-.04.19-.04.33-.08.46-.26.89-.59,1.77-.78,2.67-.12.56-.22,1.21.38,1.6.24.16.48.37.75.43.27.05.64.02.86-.13.88-.59,1.61-1.37,2.13-2.31.83-1.5,1.53-3.06,1.45-4.83ZM132.8,32.18c-.2.36-.36.79-.63,1.1-.09.11-.47.62-.78.54-.17-.43.61-2.29,1.28-2.75.58-.05.57.35.13,1.12Z"/><path class="cls-2" d="M95.12,30.08c-.27-.4-.36-.55-.79-.46-.34-.04-.71-.06-1.27.16-1.32.28-2.4,1.28-3.51,2.04-.41.28-.79.63-1.18.94-.36.29-.58.22-.69-.2-.09-.31-.2-.61-.26-.93-.16-.82-.97-1.03-1.67-.5-.54.41-1.11.77-1.7,1.1-.8.45-.85.4-.88-.49-.02-.57-.15-1.11-.66-1.39-.51-.28-.98.02-1.35.35-.55.48-1.02,1.06-1.54,1.59-.81.85-1.23,1.91-1.6,2.99-.26.74-.44,1.49-.5,2.28-.05.64-.04,1.22.45,1.64.55.46,1.21.67,1.92.39,1.11-.44,1.98-1.25,2.75-2.15.52-.61,1.06-1.23,1.26-2.05.23-.93.78-1.41,1.75-1.55,0,.09.02.19.02.28-.05,1.02-.31,1.98-.75,2.92-.49,1.05-.46,2.45.83,2.89.17.06.42.01.57-.08.28-.17.41-.46.39-.81-.07-.91.24-1.69.85-2.38.34-.38.63-.8.98-1.17.56-.6,1.12-1.2,1.73-1.74.84-.76,1.54-1.17,2.58-1.6.57-.24,1.56-.21,2.26-.95.38-.38.32-.71.02-1.11ZM81.21,36.17c-.4.41-.84.78-1.29,1.14-.11.09-.32.06-.48.08-.01-.15-.05-.3-.03-.45.14-1.02.56-1.93,1.12-2.78.22-.35.49-.36.9-.44.26-.05.38-.05.68.04.22.49-.11,1.62-.89,2.41Z"/><rect class="cls-2" x="94.2" width=".35" height="21.76"/><path class="cls-2" d="M32.75,5.49h4.05c2.29,0,3,1.54,3,2.71,0,1.73-1.34,2.41-1.96,2.49v.03c1.23.25,2.18.92,2.18,2.63,0,2.76-2.72,3.01-3.36,3.01h-3.91V5.49ZM35.2,9.91h.62c1.46,0,1.51-1.14,1.51-1.34,0-.39-.22-1.31-1.46-1.31h-.67v2.65ZM35.2,14.52h.72c.34,0,1.63,0,1.63-1.4,0-.95-.53-1.43-1.37-1.43h-.98v2.83Z"/><path class="cls-2" d="M47.45,5.49h6.27v1.9h-3.81v2.43h3.63v1.9h-3.63v2.74h4v1.9h-6.46V5.49Z"/><path class="cls-2" d="M61.88,5.49h2.55v4.48h.03l2.68-4.48h2.86l-3.36,5.09,3.63,5.78h-3.05l-2.75-4.98h-.03v4.98h-2.55V5.49Z"/><path class="cls-2" d="M76.57,5.49h4.05c2.29,0,3,1.54,3,2.71,0,1.73-1.34,2.41-1.96,2.49v.03c1.23.25,2.18.92,2.18,2.63,0,2.76-2.72,3.01-3.36,3.01h-3.91V5.49ZM79.03,9.91h.62c1.46,0,1.51-1.14,1.51-1.34,0-.39-.22-1.31-1.46-1.31h-.67v2.65ZM79.03,14.52h.72c.34,0,1.63,0,1.63-1.4,0-.95-.53-1.43-1.37-1.43h-.98v2.83Z"/><path class="cls-2" d="M105.66,5.49h4.05c2.29,0,3,1.54,3,2.71,0,1.73-1.34,2.41-1.96,2.49v.03c1.23.25,2.18.92,2.18,2.63,0,2.76-2.72,3.01-3.36,3.01h-3.91V5.49ZM108.12,9.91h.62c1.46,0,1.51-1.14,1.51-1.34,0-.39-.22-1.31-1.46-1.31h-.67v2.65ZM108.12,14.52h.72c.34,0,1.63,0,1.63-1.4,0-.95-.53-1.43-1.37-1.43h-.98v2.83Z"/><path class="cls-2" d="M127.73,7.95c-.39-.22-1.04-.62-2.21-.62-1.71,0-2.8,1.38-2.8,3.58s1.23,3.55,2.85,3.55c1.25,0,1.98-.47,2.23-.57l.09,2.27c-.43.14-1.34.39-2.72.39-2.97,0-5.06-2.22-5.06-5.66,0-3.98,2.68-5.57,4.89-5.57,1.62,0,2.45.36,2.86.53l-.12,2.12Z"/><path class="cls-2" d="M134.82,5.49h4.04c2.29,0,3,1.54,3,2.71,0,1.73-1.34,2.41-1.96,2.49v.03c1.23.25,2.18.92,2.18,2.63,0,2.76-2.72,3.01-3.36,3.01h-3.9V5.49ZM137.28,9.91h.62c1.46,0,1.51-1.14,1.51-1.34,0-.39-.22-1.31-1.46-1.31h-.67v2.65ZM137.28,14.52h.72c.34,0,1.63,0,1.63-1.4,0-.95-.53-1.43-1.37-1.43h-.98v2.83Z"/><path class="cls-2" d="M149.41,5.49h6.27v1.9h-3.81v2.43h3.62v1.9h-3.62v2.74h4v1.9h-6.46V5.49Z"/><polygon class="cls-2" points="8.95 5.21 16.36 5.21 12.59 10.9 16.36 16.64 8.95 16.64 5.09 10.94 8.95 5.21 8.95 5.21 8.95 5.21"/><path class="cls-1" d="M4.26,4.33h13.06v13.14H4.26V4.33h0ZM0,.04h21.58v21.72H0V.04h0Z"/></svg>