<?xml version="1.0" encoding="UTF-8"?><svg xmlns="http://www.w3.org/2000/svg" id="Ebene_1" viewBox="0 0 430.84 77.7"><defs><style>.cls-1{fill:#fff;}</style></defs><path class="cls-1" d="M145.96,73.12c-1,0-1.94-.15-2.7-.37l.2-1.37c.79.31,1.68.5,2.59.5,1.57,0,2.94-.65,2.94-2.35,0-2.95-5.8-1.83-5.8-5.76,0-1.98,1.5-3.45,4.23-3.45.72,0,1.55.09,2.23.24l-.17,1.27c-.66-.2-1.44-.33-2.16-.33-1.81,0-2.68.83-2.68,2.1,0,2.88,5.83,1.85,5.83,5.76,0,2.18-1.77,3.75-4.52,3.75Z"/><path class="cls-1" d="M155.62,73.1c-1.85,0-2.38-.81-2.38-2.71v-5.52h-1.99v-1.09h1.99v-3.05l1.39-.39v3.43h2.7v1.09h-2.7v4.95c0,1.64.29,2.07,1.38,2.07.46,0,.89-.06,1.24-.15l.17,1.16c-.52.11-1.22.2-1.79.2Z"/><path class="cls-1" d="M160.14,61.76c-.54,0-.96-.41-.96-.94s.42-.94.96-.94.96.41.96.94-.44.94-.96.94ZM159.44,72.95v-9.18h1.39v9.18h-1.39Z"/><path class="cls-1" d="M169.21,60.71c-.46-.15-.96-.2-1.44-.2-1.4,0-2.03.81-2.03,2.59v.68h2.71v1.09h-2.71v8.09h-1.39v-8.09h-1.99v-1.09h1.99v-.65c0-2.57,1.27-3.75,3.47-3.75.52,0,1.02.05,1.51.16l-.13,1.16Z"/><path class="cls-1" d="M173.26,73.1c-1.85,0-2.38-.81-2.38-2.71v-5.52h-1.99v-1.09h1.99v-3.05l1.39-.39v3.43h2.7v1.09h-2.7v4.95c0,1.64.3,2.07,1.38,2.07.46,0,.89-.06,1.24-.15l.17,1.16c-.52.11-1.22.2-1.79.2Z"/><path class="cls-1" d="M183.01,72.95c0-.61.06-1.5.15-2.05l-.04-.02c-.52,1.35-1.68,2.24-3.29,2.24-2.11,0-2.75-1.31-2.75-2.95v-6.39h1.38v5.93c0,1.44.39,2.27,1.72,2.27,1.64,0,2.81-1.62,2.81-3.8v-4.4h1.38v9.18h-1.37Z"/><path class="cls-1" d="M193.37,72.95v-5.93c0-1.44-.39-2.27-1.72-2.27-1.64,0-2.81,1.62-2.81,3.8v4.4h-1.39v-9.18h1.37c0,.61-.05,1.5-.15,2.05l.04.02c.52-1.35,1.68-2.24,3.29-2.24,2.1,0,2.75,1.31,2.75,2.95v6.39h-1.38Z"/><path class="cls-1" d="M200.77,77.7c-2.33,0-3.84-.98-3.84-2.73,0-1.13.74-2.03,1.61-2.53-.57-.22-.92-.74-.92-1.35s.39-1.2,1-1.51c-.85-.5-1.35-1.33-1.35-2.55,0-1.81,1.37-3.42,3.82-3.42.48,0,.78.06,1.24.17h3.12v1.09h-1.64c.54.43.85,1.11.85,1.9,0,1.87-1.26,3.34-3.84,3.34-.41,0-.74-.04-1.07-.15-.44.2-.68.54-.68.85,0,.55.52.74,1.66.78l1.75.07c1.99.07,3.08,1.02,3.08,2.62,0,1.94-1.98,3.41-4.78,3.41ZM202.08,72.84l-1.85-.07h-.59c-.79.52-1.31,1.18-1.31,1.96,0,1.18,1.14,1.87,2.68,1.87,2.01,0,3.12-.91,3.12-2.12,0-.98-.65-1.57-2.05-1.62ZM201.01,64.68c-1.5,0-2.36.96-2.36,2.23,0,1.39.83,2.16,2.31,2.16s2.31-.79,2.31-2.18-.81-2.22-2.25-2.22Z"/><path class="cls-1" d="M216.56,60.71c-.46-.15-.96-.2-1.44-.2-1.4,0-2.03.81-2.03,2.59v.68h2.71v1.09h-2.71v8.09h-1.38v-8.09h-2v-1.09h2v-.65c0-2.57,1.27-3.75,3.47-3.75.52,0,1.02.05,1.51.16l-.13,1.16Z"/><path class="cls-1" d="M223.34,72.95c0-.61.06-1.5.15-2.05l-.04-.02c-.51,1.35-1.68,2.24-3.29,2.24-2.1,0-2.75-1.31-2.75-2.95v-6.39h1.38v5.93c0,1.44.39,2.27,1.72,2.27,1.65,0,2.81-1.62,2.81-3.8v-4.4h1.39v9.18h-1.37ZM219.26,61.7c-.5,0-.89-.39-.89-.89s.39-.87.89-.87.89.39.89.87-.39.89-.89.89ZM222.73,61.7c-.5,0-.89-.39-.89-.89s.39-.87.89-.87.89.39.89.87-.41.89-.89.89Z"/><path class="cls-1" d="M232.16,64.99c-2.03-.35-2.99,1.2-2.99,4.28v3.67h-1.38v-9.18h1.37c0,.61-.07,1.51-.2,2.31l.02.02c.37-1.35,1.33-2.7,3.25-2.47l-.06,1.37Z"/><path class="cls-1" d="M242.39,73.12c-3.86,0-4.6-2.16-4.6-4.3v-8.33h1.42v8.2c0,1.79.59,3.27,3.29,3.27,2.29,0,3.42-.96,3.42-3.62v-7.85h1.38v7.74c0,3.2-1.68,4.89-4.91,4.89Z"/><path class="cls-1" d="M261.97,72.95v-5.91c0-1.38-.33-2.29-1.66-2.29-1.4,0-2.75,1.46-2.75,3.84v4.36h-1.37v-5.93c0-1.25-.26-2.27-1.66-2.27-1.51,0-2.75,1.59-2.75,3.84v4.36h-1.39v-9.18h1.37c0,.61-.04,1.48-.15,2.05l.04.02c.52-1.35,1.72-2.24,3.23-2.24,2.09,0,2.53,1.5,2.57,2.2.33-.87,1.33-2.2,3.2-2.2,1.72,0,2.71.92,2.71,2.99v6.35h-1.38Z"/><path class="cls-1" d="M275.95,72.95h-1.61l-2.01-5.93c-.2-.57-.35-1.14-.52-1.75h-.02c-.19.79-.43,1.53-.66,2.31l-1.68,5.37h-1.61l-2.84-9.18h1.55l1.57,5.46c.24.81.48,1.63.63,2.25h.02c.18-.74.39-1.51.63-2.25l1.75-5.46h1.57l1.77,5.45c.37,1.14.52,1.68.67,2.29h.04c.17-.72.35-1.33.63-2.25l1.64-5.48h1.48l-2.99,9.18Z"/><path class="cls-1" d="M287.34,68.13h-6.13c-.09,2.7,1,3.82,3.05,3.82.89,0,1.81-.19,2.6-.54l.24,1.13c-.9.37-1.97.57-3.12.57-2.73,0-4.21-1.5-4.21-4.71,0-2.75,1.48-4.8,4.03-4.8s3.58,1.75,3.58,3.79c0,.17,0,.41-.04.74ZM283.73,64.66c-1.29,0-2.22.94-2.44,2.46h4.65c.04-1.5-.81-2.46-2.21-2.46Z"/><path class="cls-1" d="M289.69,72.95v-13.48h1.39v13.48h-1.39Z"/><path class="cls-1" d="M296.89,73.1c-1.85,0-2.38-.81-2.38-2.71v-5.52h-2v-1.09h2v-3.05l1.38-.39v3.43h2.7v1.09h-2.7v4.95c0,1.64.3,2.07,1.39,2.07.46,0,.89-.06,1.24-.15l.16,1.16c-.52.11-1.22.2-1.79.2Z"/><path class="cls-1" d="M314.34,73.12c-1,0-1.94-.15-2.7-.37l.2-1.37c.8.31,1.68.5,2.59.5,1.57,0,2.93-.65,2.93-2.35,0-2.95-5.8-1.83-5.8-5.76,0-1.98,1.5-3.45,4.23-3.45.72,0,1.55.09,2.24.24l-.17,1.27c-.67-.2-1.44-.33-2.16-.33-1.81,0-2.68.83-2.68,2.1,0,2.88,5.83,1.85,5.83,5.76,0,2.18-1.77,3.75-4.52,3.75Z"/><path class="cls-1" d="M324.4,73.12c-2.45,0-4.04-1.5-4.04-4.71,0-2.62,1.62-4.8,4.37-4.8,2.24,0,4.06,1.24,4.06,4.6,0,2.73-1.68,4.91-4.4,4.91ZM324.61,64.75c-1.44,0-2.81,1.09-2.81,3.55s1.02,3.64,2.81,3.64c1.44,0,2.75-1.11,2.75-3.64,0-2.22-.92-3.55-2.75-3.55Z"/><path class="cls-1" d="M330.22,72.95v-.98l4.67-7c-.59.02-1.57.04-2.6.04h-1.98v-1.24h6.17v.96l-4.63,6.98c.55-.02,1.79-.04,2.66-.04h2.07v1.27h-6.35Z"/><path class="cls-1" d="M339.65,61.76c-.54,0-.96-.41-.96-.94s.42-.94.96-.94.96.41.96.94-.44.94-.96.94ZM338.95,72.95v-9.18h1.39v9.18h-1.39Z"/><path class="cls-1" d="M348.32,72.95c0-.7,0-1.4.09-1.94h-.04c-.44,1.16-1.62,2.11-3.19,2.11-1.46,0-2.51-.94-2.51-2.44,0-1.88,1.98-3.14,5.58-3.14v-.67c0-1.38-.5-2.16-2.09-2.16-.89,0-1.96.29-2.7.7l-.31-1.15c.89-.39,2.05-.66,3.23-.66,2.55,0,3.27,1.25,3.27,2.97v3.62c0,.9,0,1.94.04,2.75h-1.36ZM348.24,68.55c-3.27,0-4.19.92-4.19,1.92,0,.87.59,1.51,1.5,1.51,1.62,0,2.7-1.61,2.7-3.2v-.24Z"/><path class="cls-1" d="M352.75,72.95v-13.48h1.38v13.48h-1.38Z"/><path class="cls-1" d="M363.92,68.13h-6.13c-.09,2.7,1,3.82,3.05,3.82.89,0,1.81-.19,2.6-.54l.24,1.13c-.91.37-1.98.57-3.12.57-2.74,0-4.21-1.5-4.21-4.71,0-2.75,1.48-4.8,4.02-4.8s3.58,1.75,3.58,3.79c0,.17,0,.41-.04.74ZM360.3,64.66c-1.29,0-2.21.94-2.44,2.46h4.65c.04-1.5-.81-2.46-2.22-2.46Z"/><path class="cls-1" d="M367.69,73.12c-.7,0-1.48-.08-2.05-.24l.17-1.27c.59.22,1.36.35,2.07.35,1.27,0,2.2-.59,2.2-1.55,0-2.23-4.49-.83-4.49-4.1,0-1.53,1.2-2.7,3.55-2.7.58,0,1.28.09,1.81.2l-.13,1.16c-.55-.16-1.2-.28-1.83-.28-1.33,0-1.98.55-1.98,1.46,0,2.22,4.49.91,4.49,4.06,0,1.62-1.42,2.9-3.8,2.9Z"/><path class="cls-1" d="M391.86,72.95l-5.3-6.26v6.26h-1.42v-12.46h1.42v5.96l5.32-5.96h1.75l-5.54,6.04,5.72,6.43h-1.96Z"/><path class="cls-1" d="M400.56,72.95c0-.61.05-1.5.15-2.05l-.04-.02c-.52,1.35-1.68,2.24-3.29,2.24-2.1,0-2.75-1.31-2.75-2.95v-6.39h1.38v5.93c0,1.44.39,2.27,1.72,2.27,1.64,0,2.81-1.62,2.81-3.8v-4.4h1.38v9.18h-1.37Z"/><path class="cls-1" d="M405.01,72.95v-13.48h1.39v13.48h-1.39Z"/><path class="cls-1" d="M412.21,73.1c-1.85,0-2.38-.81-2.38-2.71v-5.52h-2v-1.09h2v-3.05l1.38-.39v3.43h2.7v1.09h-2.7v4.95c0,1.64.29,2.07,1.38,2.07.46,0,.89-.06,1.24-.15l.16,1.16c-.52.11-1.22.2-1.79.2Z"/><path class="cls-1" d="M421.96,72.95c0-.61.05-1.5.15-2.05l-.04-.02c-.52,1.35-1.68,2.24-3.29,2.24-2.1,0-2.75-1.31-2.75-2.95v-6.39h1.39v5.93c0,1.44.39,2.27,1.72,2.27,1.64,0,2.81-1.62,2.81-3.8v-4.4h1.38v9.18h-1.36Z"/><path class="cls-1" d="M430.78,64.99c-2.03-.35-2.99,1.2-2.99,4.28v3.67h-1.38v-9.18h1.37c0,.61-.07,1.51-.2,2.31l.02.02c.37-1.35,1.33-2.7,3.25-2.47l-.06,1.37Z"/><rect class="cls-1" x="304.46" y="60.33" width="1.1" height="16.93"/><rect class="cls-1" x="377.5" y="60.47" width="1.1" height="16.93"/><path class="cls-1" d="M29.22,28.06v.54c0,9.4,1.28,16.73,9.94,16.73,6.11,0,9.2-3.76,10.95-8.6l1.48.54c-2.89,7.79-7.46,10.14-14.85,10.14-10.08,0-15.18-7.79-15.18-17.26s5.84-17.26,15.65-17.26c8.6,0,14.44,6.18,14.44,15.18h-22.44ZM43.59,25.98c0-4.84-.27-11.42-7.12-11.42-5.78,0-7.26,7.25-7.26,11.42h14.37Z"/><path class="cls-1" d="M81.87,22.69c0-3.69-.67-7.39-5.44-7.39-5.91,0-9.07,5.91-9.07,12.16v17.47h5.31v1.68h-17.93v-1.68h5.78V15.37h-5.78v-1.68h12.63v6.31h.14c2.08-4.57,6.11-7.12,11.62-7.12s8.93,2.48,9.47,7.52h.13c1.95-5.11,6.58-7.52,11.49-7.52,6.58,0,9.88,2.75,9.88,9.47v22.57h5.31v1.68h-17.46v-1.68h5.31v-22.23c0-3.69-.67-7.39-5.04-7.39-6.31,0-9.47,6.32-9.47,12.56v17.06h5.31v1.68h-17.46v-1.68h5.31v-22.23Z"/><path class="cls-1" d="M116.03,59.7h5.98V15.37h-5.64v-1.68h12.49v4.9h.14c2.01-4.23,5.31-5.71,9.74-5.71,7.12,0,12.7,4.9,12.7,17.26,0,9.14-3.36,17.4-13.77,17.26-3.83,0-7.19-1.41-8.67-4.63h-.14v16.93h5.78v1.68h-18.61v-1.68ZM128.66,32.5c0,5.84,1.14,12.83,7.93,12.83,5.44,0,7.59-5.57,7.59-15.18,0-8.6-1.28-15.18-7.59-15.18-3.02,0-7.93,2.08-7.93,12.02v5.51Z"/><path class="cls-1" d="M165.11,28.06v.54c0,9.4,1.28,16.73,9.94,16.73,6.11,0,9.2-3.76,10.95-8.6l1.48.54c-2.89,7.79-7.46,10.14-14.85,10.14-10.08,0-15.18-7.79-15.18-17.26s5.84-17.26,15.65-17.26c8.6,0,14.44,6.18,14.44,15.18h-22.44ZM179.48,25.98c0-4.84-.27-11.42-7.12-11.42-5.78,0-7.25,7.25-7.25,11.42h14.38Z"/><path class="cls-1" d="M196.69,15.37h-5.78v-1.68h12.63v7.73h.14c1.41-3.9,4.3-8.53,9.4-8.53,3.96,0,6.11,2.55,6.11,6.45,0,2.69-1.08,4.5-3.5,4.5-1.81,0-3.36-1.34-3.36-3.42,0-.94.33-2.55.33-3.43,0-.94-.67-1.68-1.68-1.68-3.49,0-7.46,7.66-7.46,14.91v14.71h5.58v1.68h-18.2v-1.68h5.78V15.37Z"/><path class="cls-1" d="M234.82,26.95c2.01-.3,4.21-.57,7.15-.57v-4.17c0-4.63-.81-7.66-5.24-7.66-3.36,0-5.64,1.01-5.64,5.44,0,2.62-1.15,3.91-3.5,3.91-1.75,0-2.95-.89-2.95-2.9,0-6.45,6.51-8.13,11.89-8.13,10.28,0,12.29,4.23,12.29,9.81v17.06c0,5.1,1.54,5.17,5.31,5.17v1.68h-5.1c-3.76,0-6.38-.34-7.46-4.37-2.62,4.03-5.91,5.17-10.34,5.17-6.05,0-8.37-4.09-8.37-9.05,0-4.62,1.68-8.46,5.92-10,1.86-.67,3.87-1.09,6.04-1.41ZM234.98,29.14c-3.79.67-5.17,3.66-5.17,8.87,0,4.1.6,7.31,4.23,7.31,5.84,0,7.93-7.39,7.93-11.96v-4.76s-3.17-.14-6.99.53Z"/><path class="cls-1" d="M253.83,13.32h4.63V4.38h6.85v8.93h7.46v1.68h-7.46v23.38c0,3.96,1.03,6.47,3.78,6.47,2.24,0,2.7,0,4.77,0v1.79s-2.75,0-7.95,0c-6.63,0-7.45-3.96-7.45-8.26V15h-4.63v-1.68Z"/><path class="cls-1" d="M0,13.32h4.64V4.38h6.85v8.93h7.46v1.68h-7.46v23.38c0,3.96,1.02,6.47,3.78,6.47,2.24,0,2.7,0,4.77,0v1.79s-2.75,0-7.95,0c-6.63,0-7.45-3.96-7.45-8.26V15H0v-1.68Z"/><path class="cls-1" d="M284.1,15.37h-5.78v-1.68h12.63v31.24h5.78v1.68h-18.41v-1.68h5.78V15.37ZM287.53,0c2.15,0,4.03,1.81,4.03,4.03s-1.88,4.03-4.03,4.03-4.03-1.88-4.03-4.03,1.88-4.03,4.03-4.03Z"/><path class="cls-1" d="M314.35,12.88c11.96,0,15.65,10.48,15.65,17.26s-3.69,17.26-15.65,17.26-15.65-10.48-15.65-17.26,3.7-17.26,15.65-17.26ZM314.35,45.73c7.93,0,7.99-8.53,7.99-15.58s-.07-15.58-7.99-15.58-7.99,8.53-7.99,15.58.07,15.58,7.99,15.58Z"/></svg>